<svg xmlns="http://www.w3.org/2000/svg" xmlns:xlink="http://www.w3.org/1999/xlink" width="42.988" height="30.226" viewBox="0 0 42.988 30.226"><defs><linearGradient id="a" x1="0.5" x2="0.5" y2="1" gradientUnits="objectBoundingBox"><stop offset="0" stop-color="#f4738a"/><stop offset="1" stop-color="#faa79d"/></linearGradient></defs><g transform="translate(0 -76)"><g transform="translate(0 76)"><path d="M41.309,102.868H3.358V77.679a1.679,1.679,0,0,0-3.358,0v26.868a1.679,1.679,0,0,0,1.679,1.679h39.63a1.679,1.679,0,0,0,0-3.358Z" transform="translate(0 -76)" fill="url(#a)"/></g><g transform="translate(7.221 83.557)"><path d="M113.889,166.349l-.006,0c-.014-.011-.026-.022-.041-.032a1.678,1.678,0,0,0-2.05.078l-4.43,2.041a1.681,1.681,0,0,0-.267,2.9l.732.517-3.357,4.7L97.44,166.7a1.679,1.679,0,0,0-2.733,0l-8.4,11.755a1.679,1.679,0,1,0,2.733,1.952l7.03-9.842,7.03,9.842a1.679,1.679,0,0,0,2.733,0l4.733-6.626.891.63A1.68,1.68,0,0,0,114.1,173.2l.49-5.323A1.679,1.679,0,0,0,113.889,166.349Z" transform="translate(-85.999 -166)" fill="url(#a)"/></g></g></svg>