<svg xmlns="http://www.w3.org/2000/svg" width="43" height="36" viewBox="0 0 43 36"><defs><linearGradient id="wt6ka" x1="0" x2="42.14" y1="21.43" y2="21.43" gradientUnits="userSpaceOnUse"><stop offset="0" stop-color="#f4738a"/><stop offset="1" stop-color="#faa79d"/></linearGradient><linearGradient id="wt6kb" x1="10.88" x2="31.26" y1="11.54" y2="11.54" gradientUnits="userSpaceOnUse"><stop offset="0" stop-color="#f4738a"/><stop offset="1" stop-color="#faa79d"/></linearGradient></defs><g><g><g><g><g><path fill="url(#wt6ka)" d="M9.975 9.117c0-.909-.737-1.646-1.646-1.646H4.064C1.824 7.471 0 9.314 0 11.581v19.703c0 2.265 1.823 4.109 4.064 4.109h34.014c2.24 0 4.064-1.844 4.064-4.11V11.58c0-2.266-1.823-4.109-4.064-4.109h-4.265a1.646 1.646 0 0 0 0 3.292h4.265c.426 0 .772.367.772.817v19.704c0 .45-.346.816-.772.816H4.064c-.425 0-.772-.366-.772-.816V11.58c0-.45.347-.817.772-.817H8.33c.909 0 1.646-.737 1.646-1.646z"/></g></g></g><g><g><g><path fill="url(#wt6kb)" d="M19.425 1.646v15.74l-5.72-5.865a1.646 1.646 0 1 0-2.356 2.299l8.544 8.761a1.646 1.646 0 0 0 2.357 0l8.543-8.761a1.646 1.646 0 1 0-2.357-2.299l-5.719 5.865V1.646a1.646 1.646 0 1 0-3.292 0z"/></g></g></g></g></g></svg>