<svg xmlns="http://www.w3.org/2000/svg" xmlns:xlink="http://www.w3.org/1999/xlink" width="35.173" height="35.173" viewBox="0 0 35.173 35.173"><defs><linearGradient id="a" x1="0.5" x2="0.5" y2="1" gradientUnits="objectBoundingBox"><stop offset="0" stop-color="#f4738a"/><stop offset="1" stop-color="#faa79d"/></linearGradient></defs><path d="M33.8,16.212H24.731V1.374A1.374,1.374,0,0,0,23.357,0H1.374A1.374,1.374,0,0,0,0,1.374V28.3a6.877,6.877,0,0,0,6.87,6.87H28.3a6.861,6.861,0,0,0,6.87-6.87V17.586A1.374,1.374,0,0,0,33.8,16.212ZM6.87,32.425A4.126,4.126,0,0,1,2.748,28.3V2.748H21.983V28.3a6.854,6.854,0,0,0,1.37,4.122ZM32.425,28.3a4.115,4.115,0,0,1-3.84,4.112A4.117,4.117,0,0,1,24.731,28.3V18.96h7.694Z" fill="url(#a)"/><path d="M92.365,392H81.374a1.374,1.374,0,0,0,0,2.748H92.365a1.374,1.374,0,0,0,0-2.748Z" transform="translate(-74.504 -365.071)" fill="#f89d99"/><path d="M92.365,312H81.374a1.374,1.374,0,1,0,0,2.748H92.365a1.374,1.374,0,1,0,0-2.748Z" transform="translate(-74.504 -290.566)" fill="#f79596"/><g transform="translate(10 9)" fill="none"><path d="M2.133-.03a2.5,2.5,0,1,1-2.5,2.5A2.5,2.5,0,0,1,2.133-.03Z" stroke="none"/><path d="M 2.13330078125 -0.029541015625 C 0.7525908946990967 -0.029541015625 -0.36669921875 1.089749097824097 -0.36669921875 2.470458984375 C -0.36669921875 3.851169109344482 0.7525908946990967 4.970458984375 2.13330078125 4.970458984375 C 3.514010906219482 4.970458984375 4.63330078125 3.851169109344482 4.63330078125 2.470458984375 C 4.63330078125 1.089749097824097 3.514010906219482 -0.029541015625 2.13330078125 -0.029541015625 M 2.13330078125 -2.029541015625 C 4.61461067199707 -2.029541015625 6.63330078125 -0.01085090637207031 6.63330078125 2.470458984375 C 6.63330078125 4.95176887512207 4.61461067199707 6.970458984375 2.13330078125 6.970458984375 C -0.3480091094970703 6.970458984375 -2.36669921875 4.95176887512207 -2.36669921875 2.470458984375 C -2.36669921875 -0.01085090637207031 -0.3480091094970703 -2.029541015625 2.13330078125 -2.029541015625 Z" stroke="none" fill="#f5828f"/></g></svg>