<svg xmlns="http://www.w3.org/2000/svg" xmlns:xlink="http://www.w3.org/1999/xlink" width="30.481" height="30.481" viewBox="0 0 30.481 30.481"><defs><linearGradient id="a" x1="0.5" x2="0.5" y2="1" gradientUnits="objectBoundingBox"><stop offset="0" stop-color="#f4738a"/><stop offset="1" stop-color="#faa79d"/></linearGradient></defs><g transform="translate(4.167)"><path d="M85.6,0a6.515,6.515,0,0,0-4.525,1.812A6.549,6.549,0,1,0,76.549,13.1a6.515,6.515,0,0,0,4.525-1.812A6.549,6.549,0,1,0,85.6,0ZM80.714,6.7a4.167,4.167,0,1,1-4.165-4.316A4.164,4.164,0,0,1,80.714,6.7ZM85.6,10.716a4.146,4.146,0,0,1-3.114-1.4,6.564,6.564,0,0,0,0-5.541A4.168,4.168,0,1,1,85.6,10.716Z" transform="translate(-70)" fill="url(#a)"/></g><g transform="translate(0 14.05)"><path d="M27.715,239.529A10.723,10.723,0,0,0,15.241,237,10.717,10.717,0,0,0,0,246.716v4.525a1.191,1.191,0,0,0,1.191,1.191h28.1a1.191,1.191,0,0,0,1.191-1.191v-4.525A10.7,10.7,0,0,0,27.715,239.529ZM19.051,250.05H2.381v-3.334a8.335,8.335,0,1,1,16.67,0Zm9.049,0H21.432v-3.334a10.7,10.7,0,0,0-3.685-8.088A8.335,8.335,0,0,1,28.1,246.716Z" transform="translate(0 -236)" fill="url(#a)"/></g></svg>