<svg xmlns="http://www.w3.org/2000/svg" xmlns:xlink="http://www.w3.org/1999/xlink" width="1920" height="1770" viewBox="0 0 1920 1770">
  <defs>
    <filter id="Rectangle_6" x="370" y="816" width="1190" height="321" filterUnits="userSpaceOnUse">
      <feOffset dx="5" dy="10" input="SourceAlpha"/>
      <feGaussianBlur stdDeviation="15" result="blur"/>
      <feFlood flood-opacity="0.043"/>
      <feComposite operator="in" in2="blur"/>
      <feComposite in="SourceGraphic"/>
    </filter>
    <clipPath id="clip-path">
      <rect id="Rectangle_1355" data-name="Rectangle 1355" width="1920" height="1770" fill="#fff" stroke="#707070" stroke-width="1"/>
    </clipPath>
    <linearGradient id="linear-gradient" x1="0.821" y1="0.76" x2="0.439" y2="0.023" gradientUnits="objectBoundingBox">
      <stop offset="0" stop-color="#f3f3f8"/>
      <stop offset="1" stop-color="#f4f4f8" stop-opacity="0.518"/>
    </linearGradient>
    <radialGradient id="radial-gradient" cx="0.708" cy="0.431" r="1.165" gradientTransform="translate(0 -0.032) scale(1 1.074)" gradientUnits="objectBoundingBox">
      <stop offset="0" stop-color="#4757d8"/>
      <stop offset="1" stop-color="#0f1a8c"/>
    </radialGradient>
    <linearGradient id="linear-gradient-2" x1="0.982" y1="0.234" x2="0.333" y2="0.923" gradientUnits="objectBoundingBox">
      <stop offset="0" stop-color="#fff"/>
      <stop offset="1" stop-color="#fff" stop-opacity="0"/>
    </linearGradient>
    <linearGradient id="linear-gradient-4" x1="0.241" y1="0.026" x2="0.813" y2="1" gradientUnits="objectBoundingBox">
      <stop offset="0" stop-color="#a8cdff"/>
      <stop offset="1" stop-color="#6286fc"/>
    </linearGradient>
    <filter id="Ellipse_1" x="1602.5" y="558.5" width="225" height="225" filterUnits="userSpaceOnUse">
      <feOffset input="SourceAlpha"/>
      <feGaussianBlur stdDeviation="19.5" result="blur-2"/>
      <feFlood flood-color="#a7ccff" flood-opacity="0.282"/>
      <feComposite operator="in" in2="blur-2"/>
      <feComposite in="SourceGraphic"/>
    </filter>
    <linearGradient id="linear-gradient-5" x1="0.197" y1="0.193" x2="0.721" y2="1" gradientUnits="objectBoundingBox">
      <stop offset="0" stop-color="#77a4eb"/>
      <stop offset="1" stop-color="#6589f4"/>
    </linearGradient>
    <linearGradient id="linear-gradient-6" x1="1.334" y1="1" x2="-0.06" y2="-0.114" gradientUnits="objectBoundingBox">
      <stop offset="0" stop-color="#f4738a"/>
      <stop offset="1" stop-color="#faa79d"/>
    </linearGradient>
    <filter id="Ellipse_1-2" x="1734.5" y="455.5" width="182" height="182" filterUnits="userSpaceOnUse">
      <feOffset input="SourceAlpha"/>
      <feGaussianBlur stdDeviation="19.5" result="blur-3"/>
      <feFlood flood-color="#a7ccff" flood-opacity="0.282"/>
      <feComposite operator="in" in2="blur-3"/>
      <feComposite in="SourceGraphic"/>
    </filter>
    <linearGradient id="linear-gradient-7" x1="0.197" y1="0.193" x2="0.721" y2="1" gradientUnits="objectBoundingBox">
      <stop offset="0" stop-color="#eb888c"/>
      <stop offset="1" stop-color="#e86980"/>
    </linearGradient>
    <linearGradient id="linear-gradient-8" x1="0.848" y1="0.389" x2="0.527" y2="1.031" xlink:href="#linear-gradient-4"/>
    <filter id="Path_24" x="1373.755" y="721.171" width="529.738" height="371.206" filterUnits="userSpaceOnUse">
      <feOffset dy="10" input="SourceAlpha"/>
      <feGaussianBlur stdDeviation="15" result="blur-4"/>
      <feFlood flood-color="#a0b1ff" flood-opacity="0.361"/>
      <feComposite operator="in" in2="blur-4"/>
      <feComposite in="SourceGraphic"/>
    </filter>
    <linearGradient id="linear-gradient-9" x1="0.653" y1="0.934" x2="0.97" y2="0.407" xlink:href="#linear-gradient-6"/>
    <filter id="Path_25" x="1346.755" y="776.171" width="378.841" height="263.894" filterUnits="userSpaceOnUse">
      <feOffset dy="10" input="SourceAlpha"/>
      <feGaussianBlur stdDeviation="10" result="blur-5"/>
      <feFlood flood-color="#f89697" flood-opacity="0.322"/>
      <feComposite operator="in" in2="blur-5"/>
      <feComposite in="SourceGraphic"/>
    </filter>
    <linearGradient id="linear-gradient-10" x1="0.081" y1="0.515" x2="1.475" y2="0.625" gradientUnits="objectBoundingBox">
      <stop offset="0" stop-color="#fff" stop-opacity="0.694"/>
      <stop offset="1" stop-color="gray" stop-opacity="0"/>
    </linearGradient>
  </defs>
  <g id="Mask_Group_33" data-name="Mask Group 33" clip-path="url(#clip-path)">
    <g id="header_bg" transform="translate(0 72)">
      <path id="Path_9221" data-name="Path 9221" d="M1475.95,4417.075c-127.759-8.254-240.68,133.793-266.031,165.648s-77.759,124.654-160.222,139.119-155.231,33.018-248.982,9.135-206.764,36.362-224.137,66.052-131.669,220.146-230.771,233.452S153.73,5023.5,94.48,5079.274-86.541,5221.557-82.289,5299.98s0-1657.231,0-1657.231l1397.822,122.13S1603.709,4425.33,1475.95,4417.075Z" transform="translate(-72 -3413)" opacity="0.473" fill="url(#linear-gradient)"/>
      <path id="Path_1" data-name="Path 1" d="M0-219.758H1920v703.8l-5.12,45.038s-17.793,97.234-102.113,154.614-121.566,26.93-242.594,82.994S1353.154,930,1353.154,930H0Z" transform="translate(0 76)" fill="url(#radial-gradient)"/>
      <path id="Path_27" data-name="Path 27" d="M0,313.241,83.28,211.5a85.691,85.691,0,0,1,121.143-6.426l11.7,10.54a31.645,31.645,0,0,0,43.4-.974l94.241-94.76L326.7,93.749a12.138,12.138,0,0,1,7.156-20.8L431.4,62.635a12.139,12.139,0,0,1,13.385,12.926l-6.9,97.844a12.138,12.138,0,0,1-20.54,7.878l-27.207-26.274-102.3,102.744a71.5,71.5,0,0,1-98.07,2.2l-20.893-18.831a32.842,32.842,0,0,0-46.427,2.463l-84.8,103.432Z" transform="translate(1475.217 37.982)" opacity="0.061" fill="url(#linear-gradient-2)"/>
      <path id="Path_28" data-name="Path 28" d="M0,313.241,83.28,211.5a85.691,85.691,0,0,1,121.143-6.426l11.7,10.54a31.645,31.645,0,0,0,43.4-.974l94.241-94.76L326.7,93.749a12.138,12.138,0,0,1,7.156-20.8L431.4,62.635a12.139,12.139,0,0,1,13.385,12.926l-6.9,97.844a12.138,12.138,0,0,1-20.54,7.878l-27.207-26.274-102.3,102.744a71.5,71.5,0,0,1-98.07,2.2l-20.893-18.831a32.842,32.842,0,0,0-46.427,2.463l-84.8,103.432Z" transform="translate(-222.783 631.982)" opacity="0.061" fill="url(#linear-gradient-2)"/>
      <g id="images" transform="translate(-17 81)">
        <g id="Group_4" data-name="Group 4" transform="translate(1320 -1928)">
          <g transform="matrix(1, 0, 0, 1, -1303, 1775)" filter="url(#Ellipse_1)">
            <circle id="Ellipse_1-3" data-name="Ellipse 1" cx="54" cy="54" r="54" transform="translate(1661 617)" fill="url(#linear-gradient-4)"/>
          </g>
          <circle id="Ellipse_2" data-name="Ellipse 2" cx="40" cy="40" r="40" transform="translate(372 2406)" fill="url(#linear-gradient-5)"/>
          <g id="tron" transform="translate(402.606 2427.22) rotate(22)">
            <path id="Path_12" data-name="Path 12" d="M32.528,9.954c-1.549-1.43-3.691-3.614-5.437-5.163l-.1-.072a1.972,1.972,0,0,0-.573-.32h0C22.207,3.614,2.624-.047,2.242,0a.723.723,0,0,0-.3.114l-.1.077a1.151,1.151,0,0,0-.268.434L1.55.691v.423c2.2,6.139,10.909,26.248,12.623,30.967.1.32.3.929.666.96h.083c.2,0,1.033-1.1,1.033-1.1S30.906,13.805,32.419,11.874a4.884,4.884,0,0,0,.516-.764A1.244,1.244,0,0,0,32.528,9.954ZM19.791,12.065l6.381-5.292,3.743,3.449Zm-2.478-.346-10.987-9L24.1,5.994Zm.991,2.359,11.245-1.812L16.693,27.756ZM4.834,3.614l11.56,9.81L14.721,27.766Z" fill="#d0d7f9"/>
          </g>
          <circle id="Ellipse_3" data-name="Ellipse 3" cx="5" cy="5" r="5" transform="translate(484 2403)" fill="#9fb0ff" opacity="0.367"/>
          <circle id="Ellipse_4" data-name="Ellipse 4" cx="5" cy="5" r="5" transform="translate(324 2503)" fill="#9fb0ff" opacity="0.367"/>
          <circle id="Ellipse_5" data-name="Ellipse 5" cx="3" cy="3" r="3" transform="translate(344 2367)" fill="#9fb0ff" opacity="0.367"/>
        </g>
        <g id="Group_8" data-name="Group 8" transform="translate(1465 -2021)">
          <g transform="matrix(1, 0, 0, 1, -1448, 1868)" filter="url(#Ellipse_1-2)">
            <circle id="Ellipse_1-4" data-name="Ellipse 1" cx="32.5" cy="32.5" r="32.5" transform="translate(1793 514)" fill="url(#linear-gradient-6)"/>
          </g>
          <circle id="Ellipse_2-2" data-name="Ellipse 2" cx="24.5" cy="24.5" r="24.5" transform="translate(353 2390)" fill="url(#linear-gradient-7)"/>
          <g id="tron-2" data-name="tron" transform="translate(372.332 2403.712) rotate(22)">
            <path id="Path_12-2" data-name="Path 12" d="M18.7,6.011c-.935-.864-2.229-2.182-3.283-3.117L15.36,2.85a1.191,1.191,0,0,0-.346-.193h0C12.473,2.182.648-.028.418,0A.436.436,0,0,0,.237.069L.178.116A.7.7,0,0,0,.016.377L0,.418V.674c1.331,3.707,6.587,15.849,7.622,18.7.062.193.181.561.4.58h.05c.118,0,.623-.667.623-.667S17.726,8.336,18.639,7.17a2.949,2.949,0,0,0,.312-.461A.751.751,0,0,0,18.7,6.011ZM11.014,7.286l3.853-3.2,2.26,2.082Zm-1.5-.209L2.884,1.64,13.617,3.62Zm.6,1.425,6.79-1.094L9.143,16.76ZM1.983,2.182l6.98,5.923-1.01,8.66Z" transform="translate(0 0)" fill="#f6c9ce"/>
          </g>
          <circle id="Ellipse_3-2" data-name="Ellipse 3" cx="3" cy="3" r="3" transform="translate(424 2356)" fill="#f68992" opacity="0.367"/>
          <circle id="Ellipse_4-2" data-name="Ellipse 4" cx="3" cy="3" r="3" transform="translate(374 2483)" fill="#f68992" opacity="0.367"/>
          <circle id="Ellipse_5-2" data-name="Ellipse 5" cx="2" cy="2" r="2" transform="translate(300 2400)" fill="#f68992" opacity="0.367"/>
        </g>
      </g>
      <g id="calc" transform="translate(0 51)">
        <g transform="matrix(1, 0, 0, 1, 0, -123)" filter="url(#Path_24)">
          <path id="Path_24-2" data-name="Path 24" d="M0,310.38,82.329,209.8a84.713,84.713,0,0,1,119.76-6.353l11.562,10.42a31.284,31.284,0,0,0,42.908-.963l93.165-93.679L322.971,93.393a12,12,0,0,1,7.074-20.565l96.43-10.193a12,12,0,0,1,13.232,12.778l-6.821,96.728a12,12,0,0,1-20.306,7.788l-26.9-25.974L284.55,255.525A70.688,70.688,0,0,1,187.6,257.7l-20.655-18.616a32.467,32.467,0,0,0-45.9,2.434L37.214,343.772Z" transform="translate(1418.75 693.6)" fill="url(#linear-gradient-8)"/>
        </g>
        <g transform="matrix(1, 0, 0, 1, 0, -123)" filter="url(#Path_25)">
          <path id="Path_25-2" data-name="Path 25" d="M0,242.249l59.695-72.925a61.423,61.423,0,0,1,86.835-4.606l8.383,7.555a22.683,22.683,0,0,0,31.111-.7l67.552-67.924-19.4-18.733a8.7,8.7,0,0,1,5.129-14.911l69.919-7.391a8.7,8.7,0,0,1,9.594,9.265l-4.946,70.134a8.7,8.7,0,0,1-14.723,5.647l-19.5-18.833-73.329,73.646a51.254,51.254,0,0,1-70.3,1.578l-14.976-13.5a23.541,23.541,0,0,0-33.279,1.765l-60.785,74.14Z" transform="translate(1376.75 733.6)" fill="url(#linear-gradient-9)"/>
        </g>
      </g>
    </g>
    <g id="Group_2465" data-name="Group 2465" transform="translate(364.365 -141.296)">
      <ellipse id="Ellipse_6" data-name="Ellipse 6" cx="118" cy="138" rx="118" ry="138" transform="matrix(0.809, -0.588, 0.588, 0.809, 856.057, 405.01)" opacity="0.09" fill="url(#linear-gradient-10)" style="mix-blend-mode: overlay;isolation: isolate"/>
      <ellipse id="Ellipse_7" data-name="Ellipse 7" cx="77" cy="90" rx="77" ry="90" transform="matrix(-0.017, 1, -1, -0.017, 1072.688, 526.047)" opacity="0.09" fill="url(#linear-gradient-10)" style="mix-blend-mode: overlay;isolation: isolate"/>
      <ellipse id="Ellipse_8" data-name="Ellipse 8" cx="162.5" cy="190" rx="162.5" ry="190" transform="matrix(-0.946, -0.326, 0.326, -0.946, 886.432, 720.406)" opacity="0.09" fill="url(#linear-gradient-10)" style="mix-blend-mode: overlay;isolation: isolate"/>
    </g>
    <g id="Group_2466" data-name="Group 2466" transform="translate(0 -1811)">
      <g id="Ellipse_30" data-name="Ellipse 30" transform="translate(1392 2889)" fill="none" stroke="#a5c2ff" stroke-width="10" opacity="0.47">
        <circle cx="80.5" cy="80.5" r="80.5" stroke="none"/>
        <circle cx="80.5" cy="80.5" r="75.5" fill="none"/>
      </g>
    </g>
  </g>
</svg>
