<svg xmlns="http://www.w3.org/2000/svg" xmlns:xlink="http://www.w3.org/1999/xlink" width="1121.25" height="425" viewBox="0 0 1121.25 425"><defs><linearGradient id="a" x1="0.5" x2="0.696" y2="1.999" gradientUnits="objectBoundingBox"><stop offset="0" stop-color="#4757d8"/><stop offset="1" stop-color="#0f1a8c"/></linearGradient><linearGradient id="b" x1="0.152" y1="0.389" x2="0.473" y2="1.031" gradientUnits="objectBoundingBox"><stop offset="0" stop-color="#a8cdff"/><stop offset="1" stop-color="#968fff"/></linearGradient><filter id="c" x="0" y="130.137" width="364.029" height="265.236" filterUnits="userSpaceOnUse"><feOffset dy="10" input="SourceAlpha"/><feGaussianBlur stdDeviation="15" result="d"/><feFlood flood-color="#a0b1ff" flood-opacity="0.361"/><feComposite operator="in" in2="d"/><feComposite in="SourceGraphic"/></filter></defs><g transform="translate(-798.75 -1751)"><path d="M70,0h974V192a70,70,0,0,1-70,70H131A131,131,0,0,1,0,131V70A70,70,0,0,1,70,0Z" transform="translate(876 1751)" fill="url(#a)"/><g transform="matrix(1, 0, 0, 1, 798.75, 1751)" filter="url(#c)"><path d="M274.029,217l-51.3-62.676a52.79,52.79,0,0,0-74.63-3.959l-7.205,6.493a19.5,19.5,0,0,1-26.738-.6L56.093,97.876l16.672-16.1a7.478,7.478,0,0,0-4.408-12.815L8.265,62.609A7.478,7.478,0,0,0,.019,70.572L4.27,130.849A7.478,7.478,0,0,0,16.924,135.7l16.761-16.186,63.023,63.3a44.05,44.05,0,0,0,60.416,1.356L170,172.567a20.232,20.232,0,0,1,28.6,1.517l52.242,63.72Z" transform="translate(45 102.57)" fill="url(#b)"/></g><g transform="translate(1142 1796)" fill="none" stroke="#a5c2ff" stroke-width="30" opacity="0.47"><circle cx="190" cy="190" r="190" stroke="none"/><circle cx="190" cy="190" r="175" fill="none"/></g><g transform="translate(969 1784)" fill="none" stroke="#faa79d" stroke-width="20" opacity="0.47"><circle cx="86.5" cy="86.5" r="86.5" stroke="none"/><circle cx="86.5" cy="86.5" r="76.5" fill="none"/></g></g></svg>