<svg xmlns="http://www.w3.org/2000/svg" width="82" height="37" viewBox="0 0 82 37"><g><g><g><path fill="#85aafd" d="M16.758 14.938v11.826H4.932A4.937 4.937 0 0 1 0 21.833v-6.895a4.937 4.937 0 0 1 4.932-4.931h6.894a4.937 4.937 0 0 1 4.932 4.931zM4.932 13.353c-.876 0-1.586.71-1.586 1.585v6.895c0 .875.71 1.585 1.586 1.585h8.48v-8.48c0-.876-.71-1.585-1.586-1.585z"/></g><g><path fill="#85aafd" d="M38.457 14.938v11.826H26.631a4.937 4.937 0 0 1-4.932-4.931v-6.895a4.937 4.937 0 0 1 4.932-4.931h6.895a4.937 4.937 0 0 1 4.931 4.931zm-11.826-1.585c-.876 0-1.586.71-1.586 1.585v6.895c0 .875.71 1.585 1.586 1.585h8.48v-8.48c0-.876-.71-1.585-1.585-1.585z"/></g><g><path fill="#85aafd" d="M81.902 14.938v6.895a4.937 4.937 0 0 1-4.932 4.931H65.144V14.938a4.937 4.937 0 0 1 4.932-4.931h6.894a4.937 4.937 0 0 1 4.932 4.931zm-11.826-1.585c-.876 0-1.586.71-1.586 1.585v8.48h8.48c.876 0 1.586-.71 1.586-1.585v-6.895c0-.876-.71-1.585-1.586-1.585z"/></g><g><path fill="#85aafd" d="M55.271 10.007a4.937 4.937 0 0 1 4.932 4.931v6.895a4.937 4.937 0 0 1-4.932 4.931H43.445V14.938a4.937 4.937 0 0 1 4.932-4.931zm-6.894 3.346c-.876 0-1.586.71-1.586 1.585v8.48h8.48c.876 0 1.586-.71 1.586-1.585v-6.895c0-.876-.71-1.585-1.586-1.585z"/></g><g><path fill="#85aafd" d="M13.395 6.765V-.032h3.346v6.797z"/></g><g><path fill="#85aafd" d="M43.462 36.92v-6.798h3.346v6.798z"/></g><g><path fill="#85aafd" d="M65.119 36.92v-6.798h3.346v6.798z"/></g></g></g></svg>