<svg xmlns="http://www.w3.org/2000/svg" width="155" height="31" viewBox="0 0 155 31"><g><g><g><g><path fill="#85aafd" d="M83.743 5.852h5.816c.847 0 1.558.143 2.136.428.577.285 1.042.66 1.396 1.122.354.463.607.991.762 1.585.154.594.23 1.2.23 1.816 0 .85-.127 1.59-.38 2.222-.254.632-.608 1.148-1.062 1.55a4.447 4.447 0 0 1-1.65.903c-.647.2-1.362.3-2.147.3h-1.778v6.595h-3.323V5.852zm3.323 7.474h1.478c.66 0 1.196-.201 1.604-.602.407-.401.611-1.026.611-1.874 0-.833-.176-1.466-.53-1.897-.354-.432-.947-.649-1.778-.649h-1.385zM71.764 5.852h5.816c.847 0 1.558.143 2.135.428.577.285 1.043.66 1.396 1.122.355.463.608.991.762 1.585.154.594.231 1.2.231 1.816 0 .85-.127 1.59-.38 2.222-.255.632-.609 1.148-1.063 1.55a4.441 4.441 0 0 1-1.65.903c-.646.2-1.362.3-2.147.3h-1.777v6.595h-3.323zm3.323 7.474h1.478c.66 0 1.196-.201 1.604-.602.407-.401.611-1.026.611-1.874 0-.833-.177-1.466-.531-1.897-.354-.432-.946-.649-1.777-.649h-1.385zm-8.84-7.474l4.362 16.52h-3.462l-.762-3.494H62l-.76 3.495h-3.463L62.14 5.852zm-.44 10.296L64.216 8.72h-.046l-1.593 7.428zM45.843 5.852h5.447c1.155 0 2.086.189 2.794.566.696.367 1.27.93 1.65 1.62.392.702.658 1.547.796 2.534.139.988.208 2.09.208 3.309 0 1.45-.088 2.71-.265 3.783-.178 1.072-.482 1.955-.912 2.65a4.005 4.005 0 0 1-1.731 1.55c-.723.338-1.64.509-2.747.509h-5.24zm3.324 14.068zm1.477 0c.585 0 1.054-.1 1.409-.3.353-.201.634-.533.842-.996.207-.463.346-1.072.415-1.828.07-.756.104-1.697.104-2.823 0-.941-.03-1.766-.092-2.475-.062-.71-.189-1.3-.38-1.77-.194-.471-.478-.827-.855-1.065-.377-.24-.881-.359-1.512-.359h-1.408V19.92z"/></g><g><path fill="#85aafd" d="M147.002 17.142v.47c0 .372.03.711.09 1.016.06.306.17.563.334.772.164.209.383.372.658.492.276.119.62.18 1.037.18.49 0 .934-.161 1.327-.482.395-.32.591-.816.591-1.486 0-.358-.048-.667-.144-.928a1.845 1.845 0 0 0-.48-.705 3.423 3.423 0 0 0-.88-.57 12.68 12.68 0 0 0-1.35-.525 11.543 11.543 0 0 1-1.852-.782 4.994 4.994 0 0 1-1.305-.995 3.565 3.565 0 0 1-.769-1.32c-.163-.499-.245-1.076-.245-1.732 0-1.58.438-2.757 1.316-3.532.877-.775 2.081-1.163 3.613-1.163a7.86 7.86 0 0 1 1.974.234c.602.157 1.122.41 1.561.76.438.35.78.798 1.026 1.342s.368 1.196.368 1.956v.448h-3.078c0-.76-.134-1.346-.401-1.756-.268-.41-.714-.614-1.339-.614-.357 0-.654.052-.892.157-.22.09-.414.232-.568.413-.142.172-.241.374-.29.592a3.045 3.045 0 0 0-.079.694c0 .491.105.904.313 1.24.208.335.654.644 1.338.927l2.476 1.074c.61.268 1.107.547 1.494.838.386.29.695.603.925.939.231.335.39.704.48 1.107.09.402.134.849.134 1.34 0 1.686-.488 2.91-1.46 3.678-.975.768-2.332 1.152-4.071 1.152-1.814 0-3.111-.395-3.892-1.185-.781-.79-1.171-1.923-1.171-3.398v-.649h3.211zm-3.97-10.976v2.637h-3.479v13.324h-3.212V8.802h-3.479V6.166h10.17zm-13.426 0l4.215 15.961h-3.345l-.736-3.375h-4.238l-.736 3.375h-3.345l4.215-15.961zm-.424 9.948l-1.539-7.176h-.044l-1.54 7.176zm-6.802-9.948v2.637h-3.48v13.324h-3.211V8.802h-3.48V6.166zM104.069 17.14v.47c0 .372.03.711.089 1.016.06.306.17.564.334.773.164.208.383.371.658.491.276.12.621.18 1.037.18.491 0 .934-.16 1.327-.481.395-.32.592-.817.592-1.487 0-.358-.048-.667-.145-.928a1.845 1.845 0 0 0-.48-.705 3.414 3.414 0 0 0-.881-.57 12.523 12.523 0 0 0-1.35-.525 11.543 11.543 0 0 1-1.85-.782 4.993 4.993 0 0 1-1.306-.995 3.564 3.564 0 0 1-.769-1.319c-.163-.5-.245-1.077-.245-1.733 0-1.58.439-2.756 1.316-3.532.877-.774 2.082-1.162 3.613-1.162a7.86 7.86 0 0 1 1.974.234c.603.157 1.122.41 1.562.76.437.35.78.798 1.025 1.342.246.544.368 1.196.368 1.956v.448h-3.078c0-.76-.134-1.346-.401-1.756-.268-.41-.714-.614-1.338-.614-.357 0-.655.052-.893.157-.219.09-.414.232-.568.413a1.426 1.426 0 0 0-.29.592 3.044 3.044 0 0 0-.078.694c0 .491.104.904.312 1.24.208.335.654.644 1.338.927l2.476 1.074c.61.268 1.108.547 1.494.838.387.29.695.603.925.939.232.335.391.704.48 1.107.09.402.134.849.134 1.34 0 1.686-.487 2.91-1.461 3.678-.974.768-2.33 1.152-4.07 1.152-1.814 0-3.111-.395-3.892-1.185-.781-.79-1.171-1.923-1.171-3.398v-.649z"/></g></g><g><path fill="#85aafd" d="M31.18 11.54C29.803 4.669 23.494.046 16.676.614c-.08.075-.162.149-.24.224a15.6 15.6 0 0 0-1.989 2.305c-.28.397-.52.806-.724 1.212-.201.39-.367.797-.495 1.217a6.104 6.104 0 0 0-.264 2.344c.084.884.246 1.135.395 1.42.11.196.246.377.403.538.263.26.555.49.87.683.4.25.818.473 1.249.665.464.208.96.415 1.482.633 1.041.428 2.179.885 3.36 1.553.63.351 1.222.764 1.77 1.232a8.226 8.226 0 0 1 1.578 1.788c.447.692.777 1.454.977 2.253.187.744.268 1.511.24 2.278a8.968 8.968 0 0 1-.096 1.108 8.066 8.066 0 0 1-1.152 3.166 8.49 8.49 0 0 1-1.345 1.655c-.04.039-.081.075-.122.113 6.17-2.298 9.938-8.798 8.605-15.463zM16.72 27.492a13.346 13.346 0 0 0 2.292-1.96c.305-.336.58-.699.822-1.083.226-.368.399-.74.517-1.105.124-.363.175-.726.2-1.082.003-.179.006-.356-.012-.536-.012-.18-.045-.358-.075-.56a4.253 4.253 0 0 0-.297-1.005 3.289 3.289 0 0 0-.454-.747 4.509 4.509 0 0 0-.674-.658 7.913 7.913 0 0 0-.98-.65c-.755-.426-1.686-.808-2.709-1.204a70.332 70.332 0 0 1-1.61-.621 28.845 28.845 0 0 1-1.77-.751c-.615-.298-1.268-.647-1.919-1.14a7.106 7.106 0 0 1-1.799-1.946 6.547 6.547 0 0 1-.92-2.627 7.13 7.13 0 0 1-.045-1.282c.01-.204.036-.374.056-.562a10.73 10.73 0 0 1 1.69-4.565c.381-.577.815-1.118 1.295-1.617L0 3.856l5.355 26.768 9.298-1.86a24.56 24.56 0 0 0 2.066-1.272z"/></g></g></g></svg>