<svg xmlns="http://www.w3.org/2000/svg" width="67" height="32" viewBox="0 0 67 32"><g><g><g><g><g><g><g><path fill="#85aafd" d="M11.733 27.08H2.495a.373.373 0 0 1-.293-.12.333.333 0 0 1-.065-.278l2.397-13.524h4.42l-1.72 9.703c-.019.074-.012.132.02.173.032.043.093.065.178.065h3.983c1.464 0 2.648-.27 3.617-.826.996-.57 1.778-1.446 2.394-2.678.945-1.969 2.19-8.754 2.19-11.227 0-1.546-.414-2.649-1.264-3.37-.801-.68-1.976-1.01-3.594-1.01h-3.981c-.154 0-.196.07-.239.238l-.637 3.597H5.48L6.795.404c.041-.246.21-.398.439-.398h9.237c2.5 0 4.4.666 5.65 1.981 1.19 1.255 1.796 3.107 1.796 5.504 0 3.414-1.215 11.106-2.827 14.333-.948 1.954-2.176 3.307-3.753 4.136-1.453.764-3.234 1.12-5.604 1.12z"/></g><g><path fill="#85aafd" d="M59.47 24.768c1.255 0 2.202-.641 2.788-1.84.501-1.003.947-3.372.947-4.543 0-1.56-.613-2.425-2.146-2.425-1.254 0-2.202.614-2.787 1.84-.474.947-.947 3.344-.947 4.543 0 1.533.613 2.425 2.146 2.425zm-6.633 7.33c-.167 0-.278-.112-.25-.279l3.149-17.893c.028-.167.14-.279.307-.279h2.424c.168 0 .251.112.223.279l-.195 1.059h.028c.808-.948 2.007-1.645 3.763-1.645 2.508 0 3.93 1.728 3.93 4.432 0 1.784-.502 4.822-1.366 6.55-1.087 2.174-2.732 3.066-4.961 3.066-1.84 0-2.843-.78-3.261-1.673H56.6l-1.06 6.104c-.027.167-.11.279-.278.279zm-7.915-7.33c1.254 0 2.202-.641 2.787-1.84.502-1.003.948-3.372.948-4.543 0-1.56-.614-2.425-2.146-2.425-1.255 0-2.202.614-2.788 1.84-.473.947-.947 3.344-.947 4.543 0 1.533.613 2.425 2.146 2.425zm-6.633 7.33c-.168 0-.28-.112-.251-.279l3.15-17.893c.027-.167.139-.279.306-.279h2.425c.167 0 .25.112.223.279l-.196 1.059h.028c.809-.948 2.007-1.645 3.763-1.645 2.508 0 3.93 1.728 3.93 4.432 0 1.784-.502 4.822-1.366 6.55-1.087 2.174-2.731 3.066-4.961 3.066-1.84 0-2.843-.78-3.261-1.673h-.028l-1.059 6.104c-.028.167-.111.279-.279.279zm-8.557-7.107c1.84 0 3.038-.809 3.289-2.37l.195-1.142c.028-.112-.028-.167-.14-.167h-2.145c-2.286 0-3.15.78-3.15 2.201 0 .92.641 1.478 1.951 1.478zm5.045 2.09h-2.202c-.14 0-.25-.111-.223-.279l.167-1.031h-.028c-.752.948-2.062 1.617-3.93 1.617-2.09 0-3.678-1.31-3.678-3.484 0-3.15 2.201-4.822 5.964-4.822h2.62c.111 0 .195-.056.223-.167l.111-.753c.307-1.616-.223-2.285-2.424-2.285-1.45 0-2.453.446-3.15.947-.167.112-.307.084-.362-.055l-.67-1.756c-.055-.14 0-.279.112-.363 1.143-.78 2.927-1.31 4.794-1.31 3.819 0 5.128 1.366 4.543 4.655l-1.56 8.807c-.028.168-.14.279-.307.279z"/></g><g><path fill="#85aafd" d="M1.082 8.5h13.517l-1.081 3.982H0z"/></g></g><g opacity=".7"><path fill="#85aafd" d="M60.414 8.394l2.41-4.905c.032-.064 0-.106-.053-.106h-.998c-.074 0-.106.031-.138.106l-1.54 3.482h-.01l-.371-3.482c-.011-.064-.054-.106-.117-.106h-.754c-.064 0-.106.042-.138.106L57.112 6.97h-.021l-.34-3.482c-.01-.075-.053-.106-.127-.106h-.87c-.075 0-.107.042-.096.106l.68 4.905c.01.064.042.106.105.106h.818c.064 0 .106-.042.138-.106l1.593-3.408h.02l.351 3.408c0 .064.043.106.106.106h.807c.064 0 .106-.042.138-.106zm-9.237-2.941c-.042 0-.053-.021-.042-.064.031-.17.095-.35.159-.488.212-.446.616-.68 1.093-.68.553 0 .86.266.86.85 0 .085-.01.212-.031.318-.011.043-.043.064-.085.064zm.541 3.164c.871 0 1.593-.382 2.082-.86.053-.053.053-.117.01-.17l-.456-.499c-.043-.042-.096-.053-.16 0-.308.287-.785.53-1.274.53-.637 0-.987-.275-.987-1.04 0-.074 0-.138.021-.212.01-.042.032-.064.074-.064h3.037a.126.126 0 0 0 .127-.106c.107-.552.138-.86.138-1.136 0-1.168-.775-1.794-1.794-1.794-1.115 0-1.837.51-2.262 1.38-.276.563-.414 1.508-.414 2.113 0 1.168.627 1.858 1.858 1.858zm-3.684-.223l.87-4.905c.011-.064-.02-.106-.084-.106h-.924c-.064 0-.106.042-.117.106l-.87 4.905c-.01.064.032.106.095.106h.924c.064 0 .096-.042.106-.106zm1.083-6.126l.16-.882c.01-.063-.022-.106-.086-.106h-.923c-.064 0-.106.043-.117.106l-.17.882c-.01.063.021.106.085.106H49c.064 0 .107-.043.117-.106zM43.797 8.5c.075 0 .107-.042.139-.106l2.612-4.905c.032-.064-.01-.106-.075-.106h-.987c-.064 0-.106.031-.138.106L43.66 6.897h-.021l-.51-3.408c-.01-.075-.053-.106-.106-.106h-.935c-.074 0-.095.042-.095.106l.881 4.905c.01.064.053.106.117.106zm-6.285-3.11c.032-.17.096-.351.16-.49.212-.445.615-.679 1.093-.679.552 0 .86.266.86.85 0 .085-.01.212-.032.318-.01.043-.042.064-.085.064h-1.953c-.043 0-.053-.021-.043-.064zm.584 3.227c.87 0 1.593-.382 2.081-.86.053-.053.053-.117.01-.17l-.456-.499c-.042-.042-.095-.053-.159 0-.308.287-.786.53-1.274.53-.637 0-.988-.275-.988-1.04 0-.074 0-.138.022-.212.01-.042.032-.064.074-.064h3.037a.126.126 0 0 0 .127-.106c.106-.552.138-.86.138-1.136 0-1.168-.775-1.794-1.794-1.794-1.115 0-1.837.51-2.262 1.38-.276.563-.414 1.508-.414 2.113 0 1.168.626 1.858 1.858 1.858zm-6.572-4.13c-.043 0-.064-.021-.053-.064l.36-2.017c.011-.043.033-.064.075-.064h1.476c.563 0 .924.319.924.828 0 .828-.574 1.306-1.306 1.317zM29.59 8.394c-.01.064.032.106.096.106h.977c.053 0 .095-.042.106-.106l.499-2.782c0-.042.032-.063.074-.063h1.274l.84 2.845c.02.074.052.106.137.106h.956c.064 0 .106-.063.074-.138l-.892-2.952c1.04-.329 1.773-1.231 1.773-2.41 0-1.04-.753-1.72-1.91-1.72H30.95c-.063 0-.106.043-.116.106L29.59 8.394z"/></g></g></g></g></g></g></svg>