<svg xmlns="http://www.w3.org/2000/svg" width="133" height="28" viewBox="0 0 133 28"><g><g><path fill="#85aafd" d="M128.482 19.532c0-1.928-.519-2.706-2.468-4.749-2.437-2.675-3.34-4.013-3.34-7.59V4.723c0-3.65.872-4.718 4.21-4.718h1.65c3.339 0 4.21 1.058 4.21 4.718V9.64h-3.972V5.232c0-.902-.114-1.223-.83-1.223h-.238c-.705 0-.82.31-.82 1.14v2.21c0 1.97.52 2.706 2.469 4.79 2.437 2.634 3.38 3.972 3.38 7.55v3.504c0 3.65-.87 4.719-4.21 4.719h-1.649c-3.339 0-4.21-1.058-4.21-4.719V17.19h3.972v5.506c0 .902.072 1.224.819 1.224h.239c.705 0 .788-.311.788-1.224zm-11.874-5.817c.705 0 .82-.311.82-1.224V5.42c0-.902-.115-1.223-.82-1.223h-1.057v9.519zm.86-13.522c3.34 0 4.211 1.057 4.211 4.718v8.099c0 3.65-.871 4.718-4.21 4.718h-1.929v9.965h-4.251V.193zm-12.422 13.522c.705 0 .82-.311.82-1.224V5.42c0-.902-.115-1.223-.82-1.223h-1.058v9.519zm.871-13.522c3.339 0 4.21 1.057 4.21 4.718v8.099c0 3.65-.871 4.718-4.21 4.718h-1.929v9.965h-4.251V.193zM92.084 20.279h1.763c-.395-5.859-.706-10.691-.903-15.606-.197 4.915-.508 9.747-.86 15.606zm2.074 3.775h-2.396l-.31 3.65h-3.817L90.269.193h5.859l2.634 27.51h-4.283zM81.786 23.7c.747 0 .83-.311.83-1.224V5.42c0-.902-.073-1.223-.83-1.223h-1.99v7.196h1.835v4.013h-1.836v8.296zm-6.242-8.296h-1.587v-4.013h1.587V.192h7.103c3.34 0 4.21 1.058 4.21 4.719v18.085c0 3.65-.87 4.718-4.21 4.718h-7.093V15.405zm-32.738-4.013h2.945v4.013h-2.945v8.296h3.733v4.013h-7.974V.193h7.974v4.013h-3.733zM31.213 27.704V4.164h-2.281V.193h8.804v3.971h-2.282v23.54zm-8.14-7.425h1.762c-.394-5.859-.705-10.691-.902-15.606-.186 4.915-.508 9.747-.86 15.606zm2.084 3.775h-2.395l-.312 3.65h-3.805L21.268.193h5.86l2.633 27.51h-4.283zm-12.226 3.65V4.164H10.65V.193h8.804v3.971h-2.282v23.54zm-7.114-8.172c0-1.928-.518-2.706-2.468-4.749C.912 12.108.01 10.77.01 7.193V4.723C.01 1.064.87.006 4.22.006h1.65c3.338 0 4.21 1.058 4.21 4.718V9.64H6.107V5.232c0-.902-.114-1.223-.82-1.223H5.05c-.705 0-.83.31-.83 1.14v2.21c0 1.97.519 2.706 2.468 4.79 2.437 2.634 3.38 3.972 3.38 7.55v3.504c0 3.65-.87 4.719-4.21 4.719H4.21C.87 27.912 0 26.854 0 23.193v-6.014H3.97v5.506c0 .902.073 1.224.83 1.224h.239c.705 0 .788-.312.788-1.224v-3.153zm59.191-4.925c0-.135.104-.25.249-.25h4.926c.145 0 .249.115.249.25v.736a.246.246 0 0 1-.25.249h-3.826v2.675h3.184c.135 0 .249.114.249.25v.735a.246.246 0 0 1-.25.25h-3.183v2.82h3.827c.145 0 .249.114.249.249v.726a.246.246 0 0 1-.25.249h-4.925a.246.246 0 0 1-.249-.25zm-8.254 0c0-.135.114-.25.249-.25h.87c.146 0 .25.115.25.25v3.65h4.023v-3.65c0-.135.104-.25.249-.25h.871c.135 0 .249.115.249.25v8.68a.252.252 0 0 1-.249.248h-.871a.246.246 0 0 1-.249-.249v-3.785h-4.023v3.785a.246.246 0 0 1-.25.25h-.86a.252.252 0 0 1-.249-.25l-.01-8.68zm-6.512.985a.246.246 0 0 1-.25-.249v-.736c0-.135.104-.25.25-.25h5.64c.146 0 .25.115.25.25v.736a.246.246 0 0 1-.25.249h-2.136v7.694a.252.252 0 0 1-.248.25h-.871a.252.252 0 0 1-.25-.25v-7.694zM60.705 3.947c0-.135.103-.25.249-.25H66.2c.145 0 .248.115.248.25v.736a.246.246 0 0 1-.248.249h-4.148V7.96h3.505c.134 0 .249.114.249.249v.726a.252.252 0 0 1-.25.248h-3.504v3.443a.252.252 0 0 1-.25.249h-.85a.246.246 0 0 1-.248-.249v-8.68zm-5.548 7.746c1.877 0 3.411-1.524 3.411-3.391 0-1.856-1.534-3.422-3.411-3.422-1.856 0-3.391 1.555-3.391 3.422a3.406 3.406 0 0 0 3.39 3.39zm0-8.12a4.711 4.711 0 0 1 4.718 4.729 4.693 4.693 0 0 1-4.718 4.708 4.678 4.678 0 0 1-4.708-4.708 4.702 4.702 0 0 1 4.708-4.729z"/></g></g></svg>