<svg xmlns="http://www.w3.org/2000/svg" width="174" height="28" viewBox="0 0 174 28"><g><g><g><path fill="#85aafd" d="M15.675 23.56v-1.918a7.684 7.684 0 1 0-7.685-7.685 7.589 7.589 0 0 0 1.566 4.636l1.387-1.35a5.7 5.7 0 0 1-1.028-3.289 5.772 5.772 0 1 1 5.772 5.772v-1.918a3.848 3.848 0 1 0-3.346-1.93l1.435-1.399a1.84 1.84 0 0 1-.071-.514 1.971 1.971 0 1 1 1.971 1.972 1.78 1.78 0 0 1-.562-.096l-4.96 4.839a.767.767 0 0 1-.154.119c-.012.012-.036.012-.048.023a.557.557 0 0 1-.119.06c-.023.013-.048.013-.071.024l-.109.035a.152.152 0 0 0-.067.014c-.035 0-.07.012-.096.012-.035 0-.07-.012-.108-.012a.233.233 0 0 1-.083-.012l-.109-.036c-.023-.012-.048-.012-.07-.023a.485.485 0 0 1-.109-.06.261.261 0 0 1-.06-.036.685.685 0 0 1-.096-.084c-.013-.012-.036-.023-.048-.048a9.6 9.6 0 1 1 6.87 2.905zm15.308-10.995L24.531 1.376a2.79 2.79 0 0 0-2.402-1.37H9.222c-.99 0-1.906.528-2.401 1.386L.367 12.577c-.49.86-.49 1.914 0 2.773L6.82 26.535a2.76 2.76 0 0 0 2.402 1.387h12.906c.99 0 1.905-.529 2.4-1.386l6.454-11.186a2.82 2.82 0 0 0 .001-2.785z"/></g><g><g><path fill="#85aafd" d="M44.62 19.684h-2.193V8.313h2.192c3.692 0 6.07 2.126 6.07 5.628 0 3.466-2.436 5.736-6.07 5.736zm-5.869 3.314h5.904c5.713.085 9.919-3.847 9.835-9.07.084-5.33-4.124-9.023-9.835-8.962H38.75z"/></g><g><path fill="#85aafd" d="M64.326 17.942a2.692 2.692 0 0 1-2.845 2.677c-1.17 0-1.935-.574-1.935-1.47s.68-1.361 1.888-1.361h2.885zm3.71 5.068v-8.019a5.316 5.316 0 0 0-5.796-5.795 7.35 7.35 0 0 0-5.914 2.785l1.918 2.27a4.62 4.62 0 0 1 3.585-1.864 2.21 2.21 0 0 1 2.508 2.378v.598h-3.394c-3.143 0-5.114 1.494-5.114 3.932 0 2.366 1.805 4.038 4.673 4.038a5.602 5.602 0 0 0 4.122-1.637v1.314h3.394z"/></g><g><path fill="#85aafd" d="M77.935 12.519a3.476 3.476 0 0 1 3.498 3.74 3.495 3.495 0 0 1-3.502 3.717 3.394 3.394 0 0 1-3.418-3.74 3.373 3.373 0 0 1 3.418-3.717zm5.482 8.67a6.678 6.678 0 0 0 1.76-4.955 6.636 6.636 0 0 0-6.56-7.05 5.125 5.125 0 0 0-4.357 1.996V9.485h-3.394v18.437h3.7v-6.226a5.407 5.407 0 0 0 4.05 1.637 6.677 6.677 0 0 0 4.801-2.144z"/></g><g><path fill="#85aafd" d="M94.439 12.519a3.469 3.469 0 0 1 3.497 3.74 3.495 3.495 0 0 1-3.501 3.717 3.394 3.394 0 0 1-3.419-3.74 3.373 3.373 0 0 1 3.419-3.717zm.68 10.814a6.678 6.678 0 0 0 6.562-7.099 6.636 6.636 0 0 0-6.561-7.05 5.125 5.125 0 0 0-4.346 1.996V9.485h-3.405v18.437h3.7v-6.226a5.408 5.408 0 0 0 4.05 1.637z"/></g><g><path fill="#85aafd" d="M107.721 8.229h3.083a2.5 2.5 0 0 1 2.74 2.569 2.481 2.481 0 0 1-2.74 2.593h-3.087zm7.38 14.77h4.153l-5.114-7.075a5.591 5.591 0 0 0 3.166-5.139c0-3.466-2.725-5.82-6.501-5.82h-6.776V23.01h3.699v-6.37h2.7l4.673 6.37z"/></g><g><path fill="#85aafd" d="M127.952 17.942a2.692 2.692 0 0 1-2.844 2.677c-1.171 0-1.936-.574-1.936-1.47s.681-1.361 1.888-1.361h2.892zm3.703 5.07v-8.02a5.316 5.316 0 0 0-5.795-5.794 7.35 7.35 0 0 0-5.903 2.783l1.918 2.27a4.62 4.62 0 0 1 3.585-1.864 2.21 2.21 0 0 1 2.51 2.378v.598h-3.394c-3.142 0-5.114 1.494-5.114 3.932 0 2.366 1.806 4.038 4.673 4.038a5.602 5.602 0 0 0 4.123-1.637v1.314h3.393z"/></g><g><path fill="#85aafd" d="M140.998 12.519a3.406 3.406 0 0 1 3.418 3.74 3.373 3.373 0 0 1-3.418 3.717 3.469 3.469 0 0 1-3.502-3.74 3.495 3.495 0 0 1 3.502-3.717zm3.358-10.015v8.281a5.264 5.264 0 0 0-4.052-1.613 6.643 6.643 0 0 0-6.56 7.074 6.643 6.643 0 0 0 6.56 7.075 5.125 5.125 0 0 0 4.35-1.996v1.673h3.394V2.504z"/></g><g><path fill="#85aafd" d="M158.683 17.942a2.692 2.692 0 0 1-2.844 2.677c-1.171 0-1.936-.574-1.936-1.47s.681-1.361 1.888-1.361h2.89zm3.684 5.07v-8.02a5.316 5.316 0 0 0-5.795-5.794 7.35 7.35 0 0 0-5.903 2.783l1.918 2.27a4.62 4.62 0 0 1 3.585-1.864 2.21 2.21 0 0 1 2.51 2.378v.598h-3.394c-3.143 0-5.114 1.494-5.114 3.932 0 2.366 1.806 4.038 4.673 4.038a5.602 5.602 0 0 0 4.123-1.637v1.314h3.393z"/></g><g><path fill="#85aafd" d="M173.537 12.734h-.98a3.268 3.268 0 0 0-3.633 3.525v6.751h-3.699V9.483h3.394v1.613a4.675 4.675 0 0 1 3.716-1.78 3.73 3.73 0 0 1 1.207.167v3.25z"/></g></g></g></g></svg>