<svg xmlns="http://www.w3.org/2000/svg" width="28" height="28" viewBox="0 0 28 28"><defs><linearGradient id="ilida" x1="-632" x2="-632" y1="-350" y2="-350" gradientUnits="userSpaceOnUse"><stop offset="0" stop-color="#f4738a"/><stop offset="1" stop-color="#faa79d"/></linearGradient><linearGradient id="ilidb" x1="14.07" x2="14.07" y1="9.28" y2="18.48" gradientUnits="userSpaceOnUse"><stop offset="0" stop-color="#f4738a"/><stop offset="1" stop-color="#faa79d"/></linearGradient></defs><g><g><g><g><path fill="url(#ilida)" d="M25.767 23.583c0 1.204-.98 2.184-2.184 2.184H4.367a2.186 2.186 0 0 1-2.183-2.184V4.367c0-1.204.98-2.183 2.183-2.183h19.216c1.204 0 2.184.98 2.184 2.183zM23.583 0H4.367A4.372 4.372 0 0 0 0 4.367v19.216a4.372 4.372 0 0 0 4.367 4.367h19.216a4.372 4.372 0 0 0 4.367-4.367V4.367A4.372 4.372 0 0 0 23.583 0z"/></g></g><g><path fill="url(#ilidb)" d="M14 12c1.102 0 2.001.896 2.001 2.001A2 2 0 1 1 14 12zm3.252 6.477l1.413-1.416-1.151-1.151c.31-.568.486-1.219.486-1.909 0-.755-.21-1.461-.574-2.064l1.24-1.24-1.414-1.414-1.254 1.254A3.972 3.972 0 0 0 14 10.001c-.691 0-1.342.176-1.91.485l-1.202-1.203L9.472 10.7l1.154 1.153A3.98 3.98 0 0 0 10 14.001c0 .728.195 1.41.536 1.999l-1.061 1.06 1.413 1.417 1.049-1.05a3.98 3.98 0 0 0 2.063.574c.79 0 1.527-.231 2.148-.628z"/></g></g></g></svg>