<svg xmlns="http://www.w3.org/2000/svg" width="16" height="16" viewBox="0 0 16 16"><g><g><g><g><path fill="#5278d1" d="M14.751 13.496c0 .692-.563 1.255-1.255 1.255H2.454a1.256 1.256 0 0 1-1.255-1.255V2.454c0-.692.563-1.255 1.255-1.255h11.042c.692 0 1.255.563 1.255 1.255zM13.496-.056H2.454a2.512 2.512 0 0 0-2.51 2.51v11.042a2.512 2.512 0 0 0 2.51 2.51h11.042a2.512 2.512 0 0 0 2.51-2.51V2.454a2.512 2.512 0 0 0-2.51-2.51z"/></g></g><g><path fill="#5278d1" d="M7.99 6.84c.632 0 1.15.515 1.15 1.15a1.15 1.15 0 1 1-1.15-1.15zm1.868 3.722l.812-.814-.661-.661a2.285 2.285 0 0 0-.051-2.283l.712-.713-.812-.812-.72.72a2.29 2.29 0 0 0-2.246-.03L6.2 5.28l-.814.814.664.662c-.229.357-.36.78-.36 1.235 0 .418.112.81.308 1.149l-.61.61.812.813.603-.603a2.288 2.288 0 0 0 2.42-.031z"/></g></g></g></svg>