<svg xmlns="http://www.w3.org/2000/svg" width="299.631" height="378.234" viewBox="0 0 299.631 378.234"><g transform="translate(-287.685 -1885.927)"><g transform="translate(-735.769 1005.069)"><path d="M200.035,533.049s-40.85-43.859-6.908-91.343c30.115-42.131,65.226-39.251,90.987-22.154,10.972,7.282,42.6.9,69.528-41.973,36.716-58.463,163.988-23.005,140.782,66.942-11.23,43.528,34.177,45.11,11.04,88.62Z" transform="translate(902.303 1560.989) rotate(-113.003)" fill="#ebf3fa"/><rect width="38.493" height="110.872" transform="translate(1164.544 1033.103)" fill="#4a75cb"/><rect width="101.692" height="110.872" transform="translate(1062.852 1033.103)" fill="#739af0"/><rect width="7.76" height="101.692" transform="translate(1164.544 1087.339) rotate(90)" fill="#afcdfb"/><rect width="7.76" height="38.493" transform="translate(1203.037 1087.339) rotate(90)" fill="#88b3ff"/><path d="M1413.264,1238.547s31.177-14.151,52.908-8.774l-4.339,2.9,2.187,5.127a106.862,106.862,0,0,0-51.381,1.58Z" transform="translate(-276.23 -207.15)" fill="#4a75cb"/><g transform="translate(1068.082 963.931)"><path d="M1161.654,1085.442s-4.053-.49-10.1-1.321c-16.039-2.206-46.082-6.822-51.474-11.093-8.473-6.709,11.6-35.206,20.3-39.161S1161.654,1085.442,1161.654,1085.442Z" transform="translate(-1098.042 -1018.52)" fill="#72a9f7"/><path d="M1452.34,995.368c1.448,7.06-64.159,37.558-64.159,37.558s1.194-3.227,3.135-8.281l.006-.009c7.093-18.458,24.181-61.292,29.8-60.7a6.811,6.811,0,0,1,1.961.583C1431.7,968.315,1451.007,988.867,1452.34,995.368Z" transform="translate(-1325.166 -963.931)" fill="#72a9f7"/><path d="M1433.846,970.8c-4.006,6.96-30.784,53.12-31.2,53.839,7.093-18.458,24.181-61.292,29.8-60.7a3.57,3.57,0,0,1,1.961.583C1435.423,965.266,1436.058,966.954,1433.846,970.8Z" transform="translate(-1336.487 -963.931)" fill="#4a75cb"/><path d="M1156.983,1197.49h-.011c-16.039-2.206-46.082-6.822-51.474-11.093-2.435-6.858,3.883-7.417,8.48-7.9S1156.983,1197.49,1156.983,1197.49Z" transform="translate(-1103.456 -1131.889)" fill="#4a75cb"/><path d="M1334.59,1250.227s3.678-8.367,10.917-8.83c7.56-.484,11.854,8.83,11.854,8.83Z" transform="translate(-1283.214 -1181.12)" fill="#4a75cb"/></g><rect width="106.406" height="15.249" transform="translate(1059.769 1033.103)" fill="#88b3ff"/><rect width="40.106" height="15.249" transform="translate(1166.175 1033.103)" fill="#3969b7"/><path d="M1170.886,1263.094s-20.841-6.6-34.9-2.237c-16.21,5.031-15.249,25.033-15.249,25.033l3.812-1.568,5.147,2.415s.869-21.18,14.084-24.145C1155.2,1260.029,1170.886,1263.094,1170.886,1263.094Z" transform="translate(-47.715 -231.269)" fill="#4a75cb"/><rect width="7.76" height="111.828" transform="translate(1104.72 1033.103)" fill="#afcdfb"/></g></g></svg>