<svg xmlns="http://www.w3.org/2000/svg" width="49" height="38" viewBox="0 0 49 38"><defs><clipPath id="v6jha"><path fill="#fff" d="M19 38C8.507 38 0 29.493 0 19S8.507 0 19 0h11c10.493 0 19 8.507 19 19s-8.507 19-19 19z"/></clipPath></defs><g><g opacity=".45"><path fill="#151c55" d="M19 38C8.507 38 0 29.493 0 19S8.507 0 19 0h11c10.493 0 19 8.507 19 19s-8.507 19-19 19z"/><path fill="none" stroke="#151c53" stroke-miterlimit="20" stroke-width="2" d="M19 38C8.507 38 0 29.493 0 19v0C0 8.507 8.507 0 19 0h11c10.493 0 19 8.507 19 19v0c0 10.493-8.507 19-19 19z" clip-path="url(&quot;#v6jha&quot;)"/></g><g><path fill="#fff" d="M23.197 23.247l1.042 1.042 4.946-4.945-4.946-4.946-1.042 1.043 3.165 3.165h-7.068v1.475h7.068z"/></g></g></svg>