<svg xmlns="http://www.w3.org/2000/svg" width="28" height="24" viewBox="0 0 28 24"><g><g><g><g><path fill="#4ecbad" d="M25.553 10.7h-9.416c-.59 0-1.07.478-1.07 1.069v1.605h-2.14v-1.605c0-.59-.478-1.07-1.07-1.07H2.444V7.49c0-.59.48-1.07 1.07-1.07h20.97c.59 0 1.07.48 1.07 1.07zm0 9.628c0 .59-.48 1.07-1.07 1.07H3.513c-.59 0-1.07-.48-1.07-1.07v-7.49h8.345v1.606c0 .59.479 1.07 1.07 1.07h4.28c.59 0 1.07-.48 1.07-1.07v-1.605h8.345zM11.323 2.14h5.35v2.14h-5.35zm13.16 2.14h-5.67V1.07c0-.591-.48-1.07-1.07-1.07h-7.49c-.591 0-1.07.479-1.07 1.07v3.21h-5.67c-1.77 0-3.21 1.44-3.21 3.21v12.838c0 1.77 1.44 3.21 3.21 3.21h20.97c1.77 0 3.21-1.44 3.21-3.21V7.49c0-1.77-1.44-3.21-3.21-3.21z"/></g></g></g></g></svg>