<svg xmlns="http://www.w3.org/2000/svg" width="24" height="24" viewBox="0 0 24 24"><defs><linearGradient id="lyxga" x1="3.15" x2="3.15" y1="13.39" y2="23.34" gradientUnits="userSpaceOnUse"><stop offset="0" stop-color="#57debf"/><stop offset="1" stop-color="#17b282"/></linearGradient><linearGradient id="lyxgb" x1="11.67" x2="11.67" y1="0" y2="23.34" gradientUnits="userSpaceOnUse"><stop offset="0" stop-color="#57debf"/><stop offset="1" stop-color="#17b282"/></linearGradient><linearGradient id="lyxgc" x1="20.2" x2="20.2" y1="6.69" y2="23.33" gradientUnits="userSpaceOnUse"><stop offset="0" stop-color="#57debf"/><stop offset="1" stop-color="#17b282"/></linearGradient></defs><g><g><g><g><g><path fill="url(#lyxga)" d="M4.463 20.192c0 .728-.592 1.32-1.32 1.32-.728 0-1.32-.592-1.32-1.32v-3.66c0-.727.592-1.32 1.32-1.32.728 0 1.32.593 1.32 1.32v3.66zm-1.32-6.803A3.147 3.147 0 0 0 0 16.533v3.66a3.147 3.147 0 0 0 3.143 3.142 3.147 3.147 0 0 0 3.143-3.143v-3.66a3.147 3.147 0 0 0-3.143-3.143z"/></g></g></g><g><g><g><path fill="url(#lyxgb)" d="M12.988 20.192c0 .728-.592 1.32-1.32 1.32-.728 0-1.32-.592-1.32-1.32V3.143c0-.728.592-1.32 1.32-1.32.728 0 1.32.592 1.32 1.32zM11.668 0a3.147 3.147 0 0 0-3.143 3.143v17.05a3.147 3.147 0 0 0 3.143 3.142 3.147 3.147 0 0 0 3.143-3.143V3.143A3.147 3.147 0 0 0 11.668 0z"/></g></g></g><g><g><g><path fill="url(#lyxgc)" d="M21.512 20.192c0 .728-.592 1.32-1.32 1.32-.727 0-1.32-.592-1.32-1.32V9.838c0-.728.593-1.32 1.32-1.32.728 0 1.32.592 1.32 1.32zm-1.32-13.497a3.147 3.147 0 0 0-3.143 3.143v10.354a3.147 3.147 0 0 0 3.143 3.143 3.147 3.147 0 0 0 3.143-3.143V9.838a3.147 3.147 0 0 0-3.143-3.143z"/></g></g></g></g></g></svg>