<svg xmlns="http://www.w3.org/2000/svg" width="30" height="30" viewBox="0 0 30 30"><g><g><g><path fill="#ff9300" d="M13.528 22.36h2.944v-2.943h-2.944zm0-4.416h2.944V7.64h-2.944z"/></g><g><path fill="#ff9300" d="M26.777 20.28l-6.498 6.497H9.721L3.223 20.28V9.721L9.72 3.223h10.558l6.498 6.498zM29.29 8.07L21.93.71a1.466 1.466 0 0 0-1.041-.432H9.11c-.391 0-.765.155-1.04.432L.71 8.07c-.277.276-.432.65-.432 1.041V20.89c0 .391.155.765.432 1.04l7.36 7.361c.276.277.65.432 1.041.432H20.89c.391 0 .765-.155 1.04-.432l7.361-7.36c.277-.276.432-.65.432-1.041V9.11c0-.391-.155-.765-.432-1.04z"/></g></g></g></svg>