<svg xmlns="http://www.w3.org/2000/svg" width="55" height="55" viewBox="0 0 55 55"><g transform="translate(-1455 -174)"><rect width="55" height="55" rx="27.5" transform="translate(1455 174)" fill="#fff" opacity="0.401" style="mix-blend-mode:overlay;isolation:isolate"/><path d="M35.112,28.536v9.7a1.042,1.042,0,0,1-2.084,0v-9.7l1.042-1.042Zm5.946,3.49a1.042,1.042,0,0,0,0-1.473L34.807,24.3a1.042,1.042,0,0,0-1.473,0l-6.251,6.251a1.042,1.042,0,0,0,1.473,1.473l5.514-5.514,5.514,5.514a1.042,1.042,0,0,0,1.473,0Z" transform="translate(1448.063 167.066)" fill="#fff"/><path d="M44.141,43.1A1.042,1.042,0,0,0,43.1,42.055H25.042a1.042,1.042,0,0,0,0,2.084H43.1A1.042,1.042,0,0,0,44.141,43.1Z" transform="translate(1448.063 167.066)" fill="#fff"/></g></svg>