<svg xmlns="http://www.w3.org/2000/svg" width="22" height="30" viewBox="0 0 22 30"><defs><linearGradient id="7h6ea" x1="10.56" x2="10.56" y1="0" y2="12.94" gradientUnits="userSpaceOnUse"><stop offset="0" stop-color="#f4738a"/><stop offset="1" stop-color="#faa79d"/></linearGradient><linearGradient id="7h6eb" x1="10.56" x2="10.56" y1="13.88" y2="30.12" gradientUnits="userSpaceOnUse"><stop offset="0" stop-color="#f4738a"/><stop offset="1" stop-color="#faa79d"/></linearGradient></defs><g><g><g><g><g><path fill="url(#7h6ea)" d="M10.558 10.589A4.123 4.123 0 0 1 6.44 6.47a4.123 4.123 0 0 1 4.118-4.118 4.123 4.123 0 0 1 4.118 4.118 4.123 4.123 0 0 1-4.118 4.118zm0-10.589a6.478 6.478 0 0 0-6.471 6.471 6.478 6.478 0 0 0 6.47 6.47 6.478 6.478 0 0 0 6.472-6.47A6.478 6.478 0 0 0 10.558 0z"/></g></g></g><g><g><g><path fill="url(#7h6eb)" d="M18.793 27.766H2.322v-3.294a8.22 8.22 0 0 1 2.125-5.523 8.26 8.26 0 0 1 4.783-2.604l-.856 7.652c-.04.356.084.71.337.963l1.015 1.015a1.173 1.173 0 0 0 1.664 0l1.014-1.015c.253-.253.377-.607.338-.963l-.857-7.652a8.26 8.26 0 0 1 4.783 2.604 8.22 8.22 0 0 1 2.125 5.523zm-.38-10.396a10.613 10.613 0 0 0-7.855-3.487c-2.987 0-5.85 1.271-7.856 3.488A10.569 10.569 0 0 0-.03 24.472v4.47c0 .65.526 1.177 1.176 1.177H19.97c.65 0 1.176-.526 1.176-1.176v-4.47c0-2.63-.97-5.153-2.733-7.103z"/></g></g></g></g></g></svg>