<svg xmlns="http://www.w3.org/2000/svg" width="27" height="27" viewBox="0 0 27 27"><defs><linearGradient id="8hvba" x1="-492" x2="-492" y1="-346" y2="-346" gradientUnits="userSpaceOnUse"><stop offset="0" stop-color="#f4738a"/><stop offset="1" stop-color="#faa79d"/></linearGradient></defs><g><g><g><path fill="url(#8hvba)" d="M19.497 17.07c.182-2.32.192-4.8 0-7.25 1.572-.218 3.04-.52 4.355-.902.613 1.41.936 2.943.936 4.526 0 1.584-.323 3.117-.936 4.526a30.965 30.965 0 0 0-4.355-.9zm-1.106 6.588c.38-1.354.68-2.873.89-4.499 1.26.176 2.444.411 3.522.7a11.435 11.435 0 0 1-4.412 3.8zm-.982-6.821a47.127 47.127 0 0 0-7.93 0 45.256 45.256 0 0 1 0-6.785 47.13 47.13 0 0 0 7.93 0c.168 2.199.172 4.53 0 6.785zm-1.5 7.684c-.8.176-1.625.267-2.465.267-.839 0-1.664-.091-2.465-.267-.573-1.554-1.01-3.47-1.286-5.595a45.299 45.299 0 0 1 7.502 0c-.276 2.125-.712 4.04-1.286 5.595zM7.608 7.73a29.561 29.561 0 0 1-3.522-.7 11.435 11.435 0 0 1 4.411-3.8c-.38 1.354-.679 2.874-.89 4.5zM4.086 19.859zm3.522-.7c.21 1.626.51 3.145.89 4.5a11.434 11.434 0 0 1-4.412-3.8 29.563 29.563 0 0 1 3.522-.7zM3.037 17.97a11.317 11.317 0 0 1-.936-4.526c0-1.583.322-3.116.936-4.526 1.314.381 2.783.684 4.355.901-.182 2.32-.193 4.8 0 7.25-1.572.218-3.04.52-4.355.901zm7.942-15.602a11.442 11.442 0 0 1 4.93 0c.574 1.554 1.01 3.47 1.286 5.595a45.293 45.293 0 0 1-7.502 0c.276-2.125.713-4.041 1.286-5.595zM22.803 7.03a29.561 29.561 0 0 1-3.522.7c-.21-1.626-.51-3.146-.89-4.5 1.801.874 3.314 2.206 4.412 3.8zM13.444 0C6.014 0 0 6.013 0 13.444 0 20.875 6.013 26.89 13.444 26.89c7.431 0 13.445-6.013 13.445-13.445C26.889 6.014 20.876 0 13.444 0z"/></g></g></g></svg>