<svg xmlns="http://www.w3.org/2000/svg" width="132.72" height="25.714" viewBox="0 0 132.72 25.714"><g transform="translate(-73.053 -309.505)"><g transform="translate(73.053 309.505)"><path d="M89.383,310.8a2.254,2.254,0,0,1-.749,1.55,2.333,2.333,0,0,1-1.719.771H83.127v16.991H81.483a2.387,2.387,0,0,1-1.806-.72,2.829,2.829,0,0,1-.69-2.041v-14.23H73.053v-1.351a2.229,2.229,0,0,1,.661-1.557,2.393,2.393,0,0,1,1.836-.7H89.383Z" transform="translate(-73.053 -309.505)" fill="#fff"/><path d="M119.572,323.191h-.147a6.447,6.447,0,0,0-2.35-.47q-2.79,0-2.79,3.451V335.5h-1.116a3.216,3.216,0,0,1-2.166-.675,2.38,2.38,0,0,1-.786-1.909v-7.46a6.921,6.921,0,0,1,1.49-4.508,5.455,5.455,0,0,1,4.5-1.836,3.593,3.593,0,0,1,2.533.779,2.47,2.47,0,0,1,.83,1.865Z" transform="translate(-93.908 -314.894)" fill="#fff"/><path d="M134.979,327.422a9.347,9.347,0,0,1,2.122-6.307,7.37,7.37,0,0,1,5.911-2.475,7.015,7.015,0,0,1,5.587,2.4,8.575,8.575,0,0,1,2.078,5.808,9.3,9.3,0,0,1-2.122,6.285,7.379,7.379,0,0,1-5.911,2.467,7.024,7.024,0,0,1-5.588-2.394A8.524,8.524,0,0,1,134.979,327.422Zm11.513,0q0-5.184-3.847-5.184a2.973,2.973,0,0,0-2.584,1.263,5.669,5.669,0,0,0-.9,3.348q0,5.14,3.848,5.14a2.98,2.98,0,0,0,2.591-1.249A5.609,5.609,0,0,0,146.492,327.422Z" transform="translate(-107.802 -314.631)" fill="#fff"/><path d="M192.234,335.234h-1.087a3.034,3.034,0,0,1-2.136-.749,2.461,2.461,0,0,1-.815-1.895v-6.432q0-3.95-3.275-3.951a2.644,2.644,0,0,0-2.129.962,4.047,4.047,0,0,0-.808,2.68v9.384h-1.2a2.848,2.848,0,0,1-2.049-.749,2.507,2.507,0,0,1-.786-1.895v-7a6.76,6.76,0,0,1,7.313-6.946,6.7,6.7,0,0,1,6.975,7.152Z" transform="translate(-131.913 -314.631)" fill="#fff"/></g><g transform="translate(135.929 309.505)"><path d="M234.126,330.108h-1.674a2.981,2.981,0,0,1-1.931-.587,2.167,2.167,0,0,1-.844-1.4,29.941,29.941,0,0,0-.573-3.275h-8.209q-.6,2.555-1.072,5.257h-1.6q-1.895,0-1.895-1.982,0-2.526,2.408-9.355t4.6-9.266h1.689a3.589,3.589,0,0,1,3.334,1.894,50.056,50.056,0,0,1,3.37,8.459A57.139,57.139,0,0,1,234.126,330.108Zm-5.947-8.547a36.673,36.673,0,0,0-1.417-4.4,30.731,30.731,0,0,0-1.77-3.87,32.052,32.052,0,0,0-3.186,8.268Z" transform="translate(-216.327 -309.505)" fill="#a8cdff"/><path d="M277.531,326.629a10.3,10.3,0,0,1-1.924,6.491,6.429,6.429,0,0,1-5.39,2.482,4.419,4.419,0,0,1-2.372-.668,5.012,5.012,0,0,1-1.711-1.74v7.152h-1.263a2.871,2.871,0,0,1-1.99-.764,2.6,2.6,0,0,1-.844-2.027v-9.81a10.188,10.188,0,0,1,2-6.674q2-2.43,6.116-2.43a6.712,6.712,0,0,1,5.25,2.416A8.193,8.193,0,0,1,277.531,326.629Zm-4.156,1.057a7.218,7.218,0,0,0-.947-4.156,3.329,3.329,0,0,0-2.9-1.322,2.933,2.933,0,0,0-2.541,1.292,6.992,6.992,0,0,0,.169,7.181,3.551,3.551,0,0,0,2.915,1.336,2.865,2.865,0,0,0,2.386-1.2A5.02,5.02,0,0,0,273.375,327.686Z" transform="translate(-241.977 -314.631)" fill="#a8cdff"/><path d="M317.265,324.925a3.128,3.128,0,0,1-1.762,3.062,14.139,14.139,0,0,1-5.845.874h-2.643a3.465,3.465,0,0,0,1.468,2.416,5.08,5.08,0,0,0,3.069.918,7.1,7.1,0,0,0,4.963-1.527h.147v1.263q0,3.671-5.86,3.671a7.833,7.833,0,0,1-5.566-2.291,7.731,7.731,0,0,1-2.408-5.859,9.093,9.093,0,0,1,2.21-6.41,7.436,7.436,0,0,1,5.734-2.4,6.58,6.58,0,0,1,4.567,1.74A5.841,5.841,0,0,1,317.265,324.925Zm-3.789-.484a2.142,2.142,0,0,0-.815-1.821,3.659,3.659,0,0,0-2.254-.617,3.139,3.139,0,0,0-2.387,1.006,3.667,3.667,0,0,0-1.006,2.445l-.029.543h1.791a13.091,13.091,0,0,0,3.752-.345A1.239,1.239,0,0,0,313.476,324.441Z" transform="translate(-264.867 -314.631)" fill="#a8cdff"/><path d="M355.779,333.908a1.791,1.791,0,0,1-.676,1.461,3.051,3.051,0,0,1-1.967.551,3.675,3.675,0,0,1-2.24-.72,9.223,9.223,0,0,1-2.063-2.379l-1.777-2.673a19.12,19.12,0,0,0-2.129,2.864,7.874,7.874,0,0,0-.911,2.731H342.18a1.707,1.707,0,0,1-1.167-.419,1.305,1.305,0,0,1-.478-1.02,5.212,5.212,0,0,1,.749-2.644,17.866,17.866,0,0,1,2.379-3.04l1.321-1.424-1.718-2.453q-1.718-2.467-2.291-3.48a4.1,4.1,0,0,1-.6-1.821h2.408q1.425,0,3.583,3.069l1.66,2.35a22.86,22.86,0,0,0,2.481-3.121,6.547,6.547,0,0,0,.793-2.269h1.527a1.543,1.543,0,0,1,1.256.484,1.864,1.864,0,0,1,.4,1.234q0,1.2-1.895,3.671-.91,1.175-2.467,2.937l1.777,2.6a16.868,16.868,0,0,0,2.071,2.614A3.627,3.627,0,0,0,355.779,333.908Z" transform="translate(-285.935 -315.082)" fill="#a8cdff"/></g></g></svg>