<svg xmlns="http://www.w3.org/2000/svg" xmlns:xlink="http://www.w3.org/1999/xlink" width="291.616" height="52.487" viewBox="0 0 291.616 52.487"><defs><linearGradient id="a" x1="0.5" x2="0.5" y2="1" gradientUnits="objectBoundingBox"><stop offset="0" stop-color="#a8cdff"/><stop offset="1" stop-color="#6286fc"/></linearGradient></defs><g transform="translate(-426 -297)"><g transform="translate(460.863 0.495)"><g transform="translate(73.053 309.505)"><path d="M95.656,311.293a3.119,3.119,0,0,1-1.036,2.145,3.229,3.229,0,0,1-2.379,1.067H87v23.517H84.72a3.3,3.3,0,0,1-2.5-1,3.915,3.915,0,0,1-.955-2.825v-19.7H73.053v-1.87a3.085,3.085,0,0,1,.915-2.155,3.313,3.313,0,0,1,2.541-.975H95.656Z" transform="translate(-73.053 -309.505)" fill="#fff"/><path d="M123.165,324.759h-.2a8.923,8.923,0,0,0-3.252-.651q-3.862,0-3.862,4.777v12.907H114.3a4.451,4.451,0,0,1-3-.935,3.3,3.3,0,0,1-1.087-2.643V327.889a9.579,9.579,0,0,1,2.063-6.239q2.063-2.541,6.23-2.541a4.973,4.973,0,0,1,3.506,1.078,3.418,3.418,0,0,1,1.149,2.582Z" transform="translate(-87.643 -313.275)" fill="#fff"/><path d="M134.979,330.8a12.937,12.937,0,0,1,2.937-8.73,10.2,10.2,0,0,1,8.182-3.425,9.71,9.71,0,0,1,7.734,3.323A11.868,11.868,0,0,1,156.708,330a12.869,12.869,0,0,1-2.937,8.7,10.214,10.214,0,0,1-8.181,3.415,9.722,9.722,0,0,1-7.734-3.314A11.8,11.8,0,0,1,134.979,330.8Zm15.936,0q0-7.175-5.325-7.176a4.116,4.116,0,0,0-3.577,1.748,7.847,7.847,0,0,0-1.24,4.635q0,7.114,5.326,7.114a4.125,4.125,0,0,0,3.587-1.728A7.763,7.763,0,0,0,150.915,330.8Z" transform="translate(-97.363 -313.091)" fill="#fff"/><path d="M197.722,341.609h-1.5a4.2,4.2,0,0,1-2.957-1.036,3.406,3.406,0,0,1-1.129-2.622v-8.9q0-5.468-4.533-5.468a3.66,3.66,0,0,0-2.947,1.332,5.6,5.6,0,0,0-1.118,3.709v12.989h-1.667a3.942,3.942,0,0,1-2.835-1.036,3.469,3.469,0,0,1-1.087-2.622v-9.7a9.691,9.691,0,0,1,2.6-6.769q2.6-2.846,7.521-2.846a9.279,9.279,0,0,1,9.654,9.9Z" transform="translate(-114.231 -313.091)" fill="#fff"/></g><g transform="translate(160.081 309.505)"><path d="M240.962,338.022h-2.317a4.126,4.126,0,0,1-2.673-.813,3,3,0,0,1-1.169-1.931,41.445,41.445,0,0,0-.793-4.533H222.648q-.834,3.536-1.484,7.276h-2.215q-2.622,0-2.622-2.744,0-3.5,3.334-12.948t6.362-12.826h2.337a4.967,4.967,0,0,1,4.614,2.622,69.284,69.284,0,0,1,4.665,11.708A79.087,79.087,0,0,1,240.962,338.022Zm-8.232-11.83a50.764,50.764,0,0,0-1.961-6.088,42.535,42.535,0,0,0-2.45-5.356,44.364,44.364,0,0,0-4.41,11.444Z" transform="translate(-216.327 -309.505)" fill="#a8cdff"/><path d="M283.482,329.7a14.255,14.255,0,0,1-2.663,8.984,8.9,8.9,0,0,1-7.46,3.436,6.117,6.117,0,0,1-3.283-.925,6.937,6.937,0,0,1-2.368-2.408v9.9h-1.748a3.974,3.974,0,0,1-2.755-1.057,3.6,3.6,0,0,1-1.168-2.805V331.242q0-5.874,2.774-9.238t8.466-3.364a9.29,9.29,0,0,1,7.267,3.344A11.34,11.34,0,0,1,283.482,329.7Zm-5.752,1.463q0-3.922-1.311-5.752a4.608,4.608,0,0,0-4.014-1.83,4.06,4.06,0,0,0-3.517,1.789,9.678,9.678,0,0,0,.234,9.94,4.915,4.915,0,0,0,4.035,1.85,3.966,3.966,0,0,0,3.3-1.667A6.949,6.949,0,0,0,277.73,331.161Z" transform="translate(-234.272 -313.091)" fill="#a8cdff"/><path d="M322.81,327.34a4.33,4.33,0,0,1-2.439,4.238q-2.44,1.21-8.09,1.209h-3.659a4.8,4.8,0,0,0,2.032,3.344,7.031,7.031,0,0,0,4.248,1.27q4.573,0,6.87-2.114h.2v1.748q0,5.081-8.11,5.082a10.842,10.842,0,0,1-7.7-3.171,10.7,10.7,0,0,1-3.334-8.11,12.586,12.586,0,0,1,3.059-8.873,10.292,10.292,0,0,1,7.937-3.323,9.108,9.108,0,0,1,6.322,2.408A8.085,8.085,0,0,1,322.81,327.34Zm-5.245-.671a2.965,2.965,0,0,0-1.128-2.521,5.064,5.064,0,0,0-3.12-.853,4.344,4.344,0,0,0-3.3,1.392,5.075,5.075,0,0,0-1.392,3.385l-.041.752h2.479a18.121,18.121,0,0,0,5.194-.477A1.714,1.714,0,0,0,317.565,326.669Z" transform="translate(-250.285 -313.091)" fill="#a8cdff"/><path d="M361.7,339.464a2.48,2.48,0,0,1-.935,2.023,4.223,4.223,0,0,1-2.723.762,5.087,5.087,0,0,1-3.1-1,12.766,12.766,0,0,1-2.856-3.293l-2.459-3.7a26.471,26.471,0,0,0-2.947,3.964,10.9,10.9,0,0,0-1.26,3.781h-2.541a2.363,2.363,0,0,1-1.616-.579,1.807,1.807,0,0,1-.661-1.412,7.215,7.215,0,0,1,1.037-3.659,24.731,24.731,0,0,1,3.293-4.208l1.829-1.971-2.378-3.395q-2.378-3.415-3.171-4.817a5.668,5.668,0,0,1-.833-2.521h3.334q1.972,0,4.96,4.248l2.3,3.252a31.637,31.637,0,0,0,3.434-4.319,9.061,9.061,0,0,0,1.1-3.14h2.114a2.136,2.136,0,0,1,1.738.671,2.58,2.58,0,0,1,.559,1.707q0,1.667-2.622,5.082-1.26,1.626-3.414,4.065l2.459,3.6a23.347,23.347,0,0,0,2.866,3.618A5.02,5.02,0,0,0,361.7,339.464Z" transform="translate(-265.025 -313.406)" fill="#a8cdff"/></g></g><g transform="translate(-529.994 70.436)"><path d="M1030.522,251.808a1.629,1.629,0,0,1,0,1.629l-6.753,11.7-7.565,13.1a1.629,1.629,0,0,1-1.411.814H986.306a1.7,1.7,0,0,1-1.469-2.544l6.177-10.7a1.628,1.628,0,0,0,0-1.628l-3.4-5.892a1.7,1.7,0,0,0-2.938,0L973.16,278.236a1.629,1.629,0,0,1-1.41.814H957.692a1.7,1.7,0,0,1-1.469-2.544l20.955-36.292.309-.536a1.7,1.7,0,0,1,2.938,0l4.3,7.453a1.7,1.7,0,0,0,2.937,0l11.385-19.72a1.7,1.7,0,0,1,2.937,0l.257.444,5.339,9.25,1.43,2.476a1.628,1.628,0,0,1,0,1.629l-13.381,23.18a1.628,1.628,0,0,0,0,1.628l3.378,5.85a1.7,1.7,0,0,0,2.937,0l12.852-22.262,5.755-9.968a1.7,1.7,0,0,1,2.937,0Z" transform="translate(0)" fill="url(#a)"/><path d="M1193.744,356.864h-13.782a1.7,1.7,0,0,1-1.469-2.544l1.136-1.968,5.755-9.968a1.7,1.7,0,0,1,2.937,0l6.891,11.936A1.7,1.7,0,0,1,1193.744,356.864Z" transform="translate(-150.432 -77.813)" fill="url(#a)"/></g></g></svg>