<svg xmlns="http://www.w3.org/2000/svg" xmlns:xlink="http://www.w3.org/1999/xlink" width="108" height="97" viewBox="0 0 108 97"><defs><linearGradient id="a" x1="0.5" x2="0.5" y2="1" gradientUnits="objectBoundingBox"><stop offset="0" stop-color="#fff" stop-opacity="0"/><stop offset="1" stop-color="#5669a7" stop-opacity="0.302"/></linearGradient></defs><g transform="translate(-892.248 -471.945)"><path d="M973.072,471.945H935.465v81.16h58.452V492.323Z" transform="translate(-16.885 0)" fill="url(#a)"/><path d="M1017.379,471.945v20.507h20.932Z" transform="translate(-61.191)" fill="#5669a7" opacity="0.202"/><rect width="7.908" height="16.729" transform="translate(920.834 522.792) rotate(45)" fill="#5669a7" opacity="0.495"/><rect width="7.908" height="6.701" transform="translate(908.986 534.639) rotate(45)" fill="#5669a7" opacity="0.638"/><path d="M950.837,523.4a14.092,14.092,0,1,1-14.092,14.091A14.092,14.092,0,0,1,950.837,523.4m0-5.968a20.06,20.06,0,1,0,20.06,20.06,20.083,20.083,0,0,0-20.06-20.06Z" transform="translate(-14.349 -24.602)" fill="#5669a7" opacity="0.893"/><circle cx="5" cy="5" r="5" transform="translate(990.248 476.945)" fill="#9fb0ff" opacity="0.367"/><circle cx="3" cy="3" r="3" transform="translate(936.248 562.945)" fill="#9fb0ff" opacity="0.367"/><circle cx="3.5" cy="3.5" r="3.5" transform="translate(892.248 492.945)" fill="#9fb0ff" opacity="0.367"/><circle cx="3.5" cy="3.5" r="3.5" transform="translate(963.248 518.945)" fill="#fff"/><circle cx="1.5" cy="1.5" r="1.5" transform="translate(935.248 540.945)" fill="#fff"/></g></svg>