<svg xmlns="http://www.w3.org/2000/svg" xmlns:xlink="http://www.w3.org/1999/xlink" width="1286.177" height="400" viewBox="0 0 1286.177 400"><defs><linearGradient id="a" x1="0.55" x2="0.53" y2="1.902" gradientUnits="objectBoundingBox"><stop offset="0" stop-color="#4757d8"/><stop offset="1" stop-color="#0f1a8c"/></linearGradient><linearGradient id="b" x1="0.848" y1="0.389" x2="0.527" y2="1.031" gradientUnits="objectBoundingBox"><stop offset="0" stop-color="#a8cdff"/><stop offset="1" stop-color="#968fff"/></linearGradient><filter id="c" x="578.974" y="0" width="257.249" height="218.411" filterUnits="userSpaceOnUse"><feOffset dy="10" input="SourceAlpha"/><feGaussianBlur stdDeviation="15" result="d"/><feFlood flood-color="#a0b1ff" flood-opacity="0.361"/><feComposite operator="in" in2="d"/><feComposite in="SourceGraphic"/></filter><linearGradient id="e" x1="0.653" y1="0.934" x2="0.97" y2="0.407" gradientUnits="objectBoundingBox"><stop offset="0" stop-color="#f4738a"/><stop offset="1" stop-color="#faa79d"/></linearGradient><filter id="f" x="609.884" y="39.647" width="143.015" height="148.44" filterUnits="userSpaceOnUse"><feOffset dy="10" input="SourceAlpha"/><feGaussianBlur stdDeviation="10" result="g"/><feFlood flood-color="#f89697" flood-opacity="0.322"/><feComposite operator="in" in2="g"/><feComposite in="SourceGraphic"/></filter><linearGradient id="h" x1="0.5" x2="0.5" y2="1" gradientUnits="objectBoundingBox"><stop offset="0" stop-color="#fff" stop-opacity="0.584"/><stop offset="1" stop-color="#fff" stop-opacity="0"/></linearGradient><filter id="j" x="457.952" y="44" width="356" height="356" filterUnits="userSpaceOnUse"><feOffset dy="20" input="SourceAlpha"/><feGaussianBlur stdDeviation="25" result="k"/><feFlood flood-color="#4757d8" flood-opacity="0.102"/><feComposite operator="in" in2="k"/><feComposite in="SourceGraphic"/></filter><filter id="l" x="505.952" y="82" width="260" height="260" filterUnits="userSpaceOnUse"><feOffset dy="10" input="SourceAlpha"/><feGaussianBlur stdDeviation="15" result="m"/><feFlood flood-color="#4757d8" flood-opacity="0.192"/><feComposite operator="in" in2="m"/><feComposite in="SourceGraphic"/></filter></defs><g transform="translate(123.952 -2566)"><path d="M-5079.3-9322.373c-8.8-13.777-18.068-45.886-35.071-60.146-28.409-23.823-65.547-23.289-65.547-23.289L-5180-9468l.078,62.194s-37.3-.534-65.7,23.289c-17,14.26-26.277,46.368-35.073,60.146-20.89,32.717-58.183,34.394-65.593,34.394-.847,0-1.3-.021-1.3-.021h-466.361v-200a15,15,0,0,1,15-15H-5180l.026,34-.026-34,637.225.021a15,15,0,0,1,15,15v200l-484.634-.021s-.456.021-1.3.021C-5021.119-9287.979-5058.417-9289.656-5079.3-9322.373Z" transform="translate(5690 12122.002)" fill="url(#a)"/><g transform="translate(29 -9.999)"><g transform="matrix(1, 0, 0, 1, -152.95, 2576)" filter="url(#c)"><path d="M175.778,147.377l6.96,6.273a18.832,18.832,0,0,0,25.83-.58l56.085-56.394L248.548,81.124a7.223,7.223,0,0,1,4.258-12.38l58.05-6.136a7.224,7.224,0,0,1,7.965,7.692l-4.106,58.229a7.224,7.224,0,0,1-12.224,4.688L286.3,117.581l-60.882,61.145a42.554,42.554,0,0,1-58.363,1.31L154.621,168.83C146.59,161.593,154.824,128.495,175.778,147.377Z" transform="translate(472.38 -27.57)" fill="url(#b)"/></g><g transform="matrix(1, 0, 0, 1, -152.95, 2576)" filter="url(#f)"><path d="M140.529,129.12l41.243-41.47L169.928,76.213a5.312,5.312,0,0,1,3.132-9.1L215.748,62.6a5.312,5.312,0,0,1,5.857,5.657l-3.02,42.82a5.312,5.312,0,0,1-8.989,3.447l-11.907-11.5-44.77,44.964C141.124,159.617,135.308,134.268,140.529,129.12Z" transform="translate(501.28 -2.92)" fill="url(#e)"/></g></g><circle cx="189" cy="189" r="189" transform="translate(323 2581)" opacity="0.1" fill="url(#h)" style="mix-blend-mode:overlay;isolation:isolate"/><circle cx="136" cy="136" r="136" transform="translate(376 2634)" opacity="0.222" fill="url(#h)" style="mix-blend-mode:overlay;isolation:isolate"/><g transform="matrix(1, 0, 0, 1, -123.95, 2566)" filter="url(#j)"><circle cx="103" cy="103" r="103" transform="translate(532.95 99)" fill="#fff"/></g><g transform="matrix(1, 0, 0, 1, -123.95, 2566)" filter="url(#l)"><circle cx="85" cy="85" r="85" transform="translate(550.95 117)" fill="#fff" opacity="0.327"/></g></g></svg>