<svg xmlns="http://www.w3.org/2000/svg" width="30" height="20" viewBox="0 0 30 20"><defs><linearGradient id="1xb7a" x1="15" x2="15" y1="0" y2="20" gradientUnits="userSpaceOnUse"><stop offset="0" stop-color="#f4738a"/><stop offset="1" stop-color="#faa79d"/></linearGradient><linearGradient id="1xb7b" x1="15" x2="15" y1="6.11" y2="13.89" gradientUnits="userSpaceOnUse"><stop offset="0" stop-color="#f4738a"/><stop offset="1" stop-color="#faa79d"/></linearGradient></defs><g><g><g><g><g><path fill="url(#1xb7a)" d="M27 4.55l-2.328-2.328H27zm0 7.758l-5.47 5.47H8.47L3 12.308V7.692l5.47-5.47h13.06L27 7.692zm0 5.47h-2.328L27 15.45zm-24 0V15.45l2.327 2.327zM3 2.222h2.327L3 4.55zM28.11 0H1.889C1.275 0 .778.497.778 1.111V18.89c0 .614.497 1.111 1.11 1.111h26.223c.613 0 1.11-.497 1.11-1.111V1.11c0-.614-.497-1.111-1.11-1.111z"/></g></g></g><g><g><g><path fill="url(#1xb7b)" d="M15 11.667A1.669 1.669 0 0 1 13.333 10c0-.919.748-1.667 1.667-1.667s1.666.748 1.666 1.667-.747 1.667-1.666 1.667zm0-5.556A3.893 3.893 0 0 0 11.11 10 3.893 3.893 0 0 0 15 13.889 3.893 3.893 0 0 0 18.888 10 3.893 3.893 0 0 0 15 6.111z"/></g></g></g></g></g></svg>