<svg xmlns="http://www.w3.org/2000/svg" width="40" height="31.85" viewBox="0 0 40 31.85"><g transform="translate(-907.801 -462.638)"><rect width="7.783" height="7.258" rx="0.7" transform="translate(907.801 473.537)" fill="#077cc6"/><rect width="6.21" height="5.791" rx="0.7" transform="translate(918.425 475.638)" fill="#077cc6"/><path d="M954.289,516.583l-8.965.4a1.039,1.039,0,0,1-1.039-1.039v-.276a1.039,1.039,0,0,1,1.039-1.039l8.965-.4a1.038,1.038,0,0,1,1.038,1.039v.276A1.038,1.038,0,0,1,954.289,516.583Z" transform="translate(-15.905 -22.491)" fill="#077cc6"/><rect width="4.616" height="4.304" rx="0.7" transform="translate(913.626 482.919)" fill="#077cc6"/><path d="M926.9,472.327l-5.906-.191a1.337,1.337,0,0,1-1.337-1.337v-5.328a1.337,1.337,0,0,1,1.337-1.337l5.906.191a1.337,1.337,0,0,1,1.337,1.337v5.328A1.337,1.337,0,0,1,926.9,472.327Z" transform="translate(-5.167 -0.653)" fill="#077cc6"/><path d="M944.191,468.488l-4.054-.358a.918.918,0,0,1-.918-.918v-3.657a.918.918,0,0,1,.918-.918l4.054.359a.918.918,0,0,1,.918.917v3.657A.918.918,0,0,1,944.191,468.488Z" transform="translate(-13.696)" fill="#077cc6"/><path d="M957.35,478.353v15.384a1.358,1.358,0,0,1-1.284,1.356l-21.132,1.16-3.8.209a1.359,1.359,0,0,1-1.433-1.356v-1.032a1.358,1.358,0,0,1,1.358-1.358h2.512a1.358,1.358,0,0,0,1.358-1.358v-2.874a1.358,1.358,0,0,1,1.358-1.358h2.687a1.358,1.358,0,0,0,1.358-1.358V482.9a1.358,1.358,0,0,0-1.358-1.358h-2.366a1.358,1.358,0,0,1-1.358-1.358v-2.92a1.359,1.359,0,0,1,1.434-1.356L956.068,477A1.358,1.358,0,0,1,957.35,478.353Z" transform="translate(-9.549 -5.784)" fill="#077cc6"/></g></svg>