<svg xmlns="http://www.w3.org/2000/svg" width="14" height="19" viewBox="0 0 14 19"><defs><linearGradient id="tdqxa" x1="7" x2="7" y1=".72" y2="11.21" gradientUnits="userSpaceOnUse"><stop offset="0" stop-color="#f4738a"/><stop offset="1" stop-color="#faa79d"/></linearGradient><linearGradient id="tdqxb" x1="6.99" x2="6.99" y1="11.91" y2="19" gradientUnits="userSpaceOnUse"><stop offset="0" stop-color="#f4738a"/><stop offset="1" stop-color="#faa79d"/></linearGradient></defs><g><g><g><g><g><path fill="url(#tdqxa)" d="M6.992 9.784a3.823 3.823 0 0 1-3.819-3.818 3.823 3.823 0 0 1 3.819-3.819 3.823 3.823 0 0 1 3.818 3.819 3.823 3.823 0 0 1-3.818 3.818zm0-9.065a5.252 5.252 0 0 0-5.247 5.247 5.252 5.252 0 0 0 5.247 5.246 5.252 5.252 0 0 0 5.246-5.246A5.252 5.252 0 0 0 6.992.719z"/></g></g></g><g><g><g><path fill="url(#tdqxb)" d="M1.83 17.572a4.958 4.958 0 0 1 4.899-4.236h.525a4.958 4.958 0 0 1 4.9 4.236zm4.899-5.664A6.385 6.385 0 0 0 .35 18.286a.714.714 0 0 0 .714.714h11.854c.394 0 .714-.32.714-.714a6.385 6.385 0 0 0-6.378-6.378z"/></g></g></g></g></g></svg>