<svg xmlns="http://www.w3.org/2000/svg" width="12.359" height="12.359" viewBox="0 0 12.359 12.359"><g transform="translate(-1334.063 -3039.063)"><path d="M31.892,26.782v5.951a.639.639,0,0,1-1.278,0V26.782l.639-.639Zm3.648,2.141a.639.639,0,0,0,0-.9L31.7,24.184a.639.639,0,0,0-.9,0L26.965,28.02a.639.639,0,0,0,.9.9l3.383-3.383,3.383,3.383a.639.639,0,0,0,.9,0Z" transform="translate(1308.989 3015.066)" fill="#fff"/><path d="M36.359,42.694a.639.639,0,0,0-.639-.639H24.639a.639.639,0,0,0,0,1.278h11.08A.639.639,0,0,0,36.359,42.694Z" transform="translate(1310.063 3008.088)" fill="#fff"/></g></svg>