<svg xmlns="http://www.w3.org/2000/svg" width="24" height="24" viewBox="0 0 24 24"><g><g><g><g><g><path fill="#f7b88a" d="M11.706 21.582a9.871 9.871 0 0 1-9.877-9.876 9.871 9.871 0 0 1 9.877-9.877 9.871 9.871 0 0 1 9.876 9.877 9.871 9.871 0 0 1-9.876 9.876zm0-21.582A11.699 11.699 0 0 0 0 11.706c0 6.47 5.236 11.705 11.706 11.705S23.41 18.175 23.41 11.706C23.411 5.236 18.175 0 11.706 0z"/></g></g></g><g><g><g><path fill="#f7b88a" d="M11.706 9.8a.914.914 0 0 0-.915.915v5.889a.914.914 0 1 0 1.83 0v-5.89a.914.914 0 0 0-.915-.914z"/></g></g></g><g><g><g><path fill="#f7b88a" d="M10.471 7.446a1.235 1.235 0 1 1 2.47 0 1.235 1.235 0 0 1-2.47 0z"/></g></g></g></g></g></svg>